<svg id="Layer_1" data-name="Layer 1" xmlns="http://www.w3.org/2000/svg" viewBox="0 0 316.15 313.37"><path d="M298.25,33.8c-1.21,1.13-2.4,2.29-3.57,3.46a36.51,36.51,0,0,1-3.77,2.81,22.88,22.88,0,0,1-1.17-9c.07-1.05-1.6.74-1.72,1.06q-2.19,5.81-4.37,11.62a36.7,36.7,0,0,1-4.47,1.39,7.44,7.44,0,0,0-2.11.47H277l-.2.07c-.42.18-1.82,2.07-.82,1.88.83-.16,1.66-.35,2.49-.56a12.72,12.72,0,0,1,3.72.56l-1.36,3.6c-.17.47.13.6.52.45a2.35,2.35,0,0,0,1.11-1.27c.31-.82.61-1.63.92-2.44l1.34.38q-3.72,4.62-7,9.55c-.17.26-.54.86-.1,1s1.08-.65,1.24-.9c2.19-3.23,4.52-6.38,7-9.41a7.5,7.5,0,0,0,5.36-.47,3.48,3.48,0,0,0,2-2.6,3.83,3.83,0,0,0-.7-1.91c-.3-.56-.58-1.13-.83-1.71q1.61-1.74,3.27-3.42a40.7,40.7,0,0,0,3.88-3.78C299.47,33.91,299.31,32.81,298.25,33.8Zm-10.26,2a23.49,23.49,0,0,0,.86,5c0,.16.11.31.16.47a37.33,37.33,0,0,1-3.8,1.89Q286.61,39.45,288,35.77Zm-3.83,10.15.36-1a40,40,0,0,0,4.91-2.54l.09.28c-1.11,1.24-2.19,2.5-3.26,3.77C285.56,46.31,284.86,46.11,284.16,45.92Zm6.74.74a5.28,5.28,0,0,1-.87.15,9.85,9.85,0,0,1-2.66-.11c.85-1,1.71-2,2.59-3,.17.38.33.77.52,1.13.26.52.49,1.21.8,1.71A2.84,2.84,0,0,1,290.9,46.66Z"/><path d="M37.89,61.86a9.58,9.58,0,0,0,3.76-6.09A16.21,16.21,0,0,0,42,52.4a8,8,0,0,0,2.93,0c5.59-1,9.79-6.16,11.81-11.17a25.11,25.11,0,0,0,1.73-7.72q1.31-.85,2.55-1.8A51,51,0,0,0,68.39,25c1.43-1.6,5-5.13,2.75-7.36-.45-.46-2.3,1.08-1.92,1.5,1.91,2.08-1.53,5.21-2.87,6.65A45.67,45.67,0,0,1,60,31.39l-1.48,1a14.69,14.69,0,0,0-2-8c-1.26-2-3.34-3.38-5.75-2.71s-4.79,2.94-6.4,5a16,16,0,0,0-3.55,7.27c-.33,2.14.18,4.69,2.49,5.47A7.31,7.31,0,0,0,47.86,39a44.51,44.51,0,0,0,4.72-2c1.28-.62,2.52-1.31,3.74-2-.2,4.79-1.86,9.78-5.22,13.17a8.35,8.35,0,0,1-7.48,2.61,12.45,12.45,0,0,1-1.68-.5C41.54,46,40,41.93,39.16,37.88a24.74,24.74,0,0,1-.55-8.31,11.44,11.44,0,0,1,1.23-4,5.49,5.49,0,0,1,1.35-1.85,1.29,1.29,0,0,1,2,1.05c0,.48,1.81-.59,1.86-1.19a1.64,1.64,0,0,0-1.81-1.76,5.5,5.5,0,0,0-3.35,1.92,12.33,12.33,0,0,0-3.25,6.58c-1,5.91,1.34,11.59,2.56,17.27.13.57.24,1.16.34,1.74a6.3,6.3,0,0,0-3.4-.26,5.88,5.88,0,0,0-4.35,4.5c-.53,2.26-.92,5.21.53,7.23A4,4,0,0,0,37.89,61.86Zm15-26.23c-2.22,1.07-5.7,3.07-8.18,1.91-2.24-1-2.2-4-1.59-6.07a15.49,15.49,0,0,1,4.37-6.81,4,4,0,0,1,3.56-1.34,5,5,0,0,1,2.8,1.86,12.22,12.22,0,0,1,2.39,7c.05.54.05,1.1.06,1.66C55.24,34.46,54.1,35.07,52.94,35.63ZM33.65,53.55a9.24,9.24,0,0,1,.5-2.06c.38-.91,1.32-.9,2.19-.81a13.92,13.92,0,0,1,3.55,1.1,16.7,16.7,0,0,1-.21,4.84c-.26,1.28-1,4.29-2.63,4.26a3.94,3.94,0,0,1-3.21-2.59A9.29,9.29,0,0,1,33.65,53.55Z"/><path d="M292.13,270.71h-1.58q.38-13.15-.35-26.31c1.08-.85,2.07-2.21,1-2.21h-1.12c-.22-3.73-.47-7.46-.73-11.19,1.15-.78,2.53-2.69,1.29-2.65l-1.48.05c-.24-3.41-.48-6.82-.7-10.23,1-.8,1.82-1.94.81-2l-.94-.07q-.37-5.84-.61-11.68c.17-.3.34-.72,0-.72h0c-.05-1.12-.09-2.25-.12-3.37-.08-2.57-.11-5.13-.15-7.69h1.33c.61,0,2.36-1.6,1.53-1.6l-2.89,0c-.31-25.9.92-51.79,1.35-77.68l.06-3.8c1.15-.79,2.48-2.54,1.29-2.51l-1.26,0q.07-6.46.06-12.92c.2-.33.23-.59,0-.68q0-6.56-.19-13.09c.47-.57.63-1.06,0-1h0q-.18-6.43-.52-12.87c1.06-.81,2.06-2.14,1-2.13l-30.09.34a.26.26,0,0,0-.15,0l-21,.24c-.07-.17-.3-.14-.59,0q-75,.84-150.08,1.7L52,67v0c0-.28-.46-.19-.93.06-7.29.09-14.59.17-21.88.28a1.81,1.81,0,0,0-.8.31c-.51.16-1.5.81-1.54,1.28,0,.06,0,.12,0,.18-.24.36-.3.66-.05.77q-1.56,20.67-1.9,41.41c-.17,9.76.8,19.43,1.44,29.16.19,2.89.3,5.78.37,8.67-.51.54-.93,1.43-.52,1.45l.55,0c.06,4.24,0,8.46-.2,12.69l-.13.13c-.08.08-.73.87-.3.89l.39,0q-.36,7-1.15,14a119.73,119.73,0,0,0-.92,12.83c0,4.25.17,8.49.32,12.73,0,.43,0,.86,0,1.28-.16.3-.2.53,0,.55h0q.21,6,.45,12c-.75.7-1.23,1.49-.44,1.52h.5c.15,3.68.29,7.35.44,11q.27,7.14.56,14.28c-.47.58-.63,1.11,0,1.11h0c.14,3.67.29,7.34.43,11l.11,2.83c-.47.6-.65,1.16,0,1.16h0l.36,9.22a104.77,104.77,0,0,0,.85,12.53q.21,1.38.54,2.73a17,17,0,0,1,.82,2.78c-.12.19-.13.32-.08.41-.51.62-.71,1.2,0,1.2q37.41-.07,74.84-.42c0,.21.36.17.77,0,41.69-.35,83.39-.83,125.08-1.18l7.39-.06c0,.3,0,.6,0,.9,0,.46,1.22-.23,1.72-.91l14.78-.13c0,.31.35.24.7,0l32.11-.28a1.81,1.81,0,0,0,.81-.3c0,.51-.07,1-.11,1.53s.92,0,1-.12a2,2,0,0,0,1-1.24c.38-4.56.64-9.12.82-13.69C291.65,273.18,293.59,270.72,292.13,270.71Zm-3.6-14.41-32.2.05,0-1.85q.08-4.68.17-9.34l31.58-.09C288.31,248.81,288.45,252.56,288.53,256.3Zm-3.82-103.92c-9.4-.87-18.81-1.53-28.24-2q0-6.26.09-12.52l28.16-.05A1.89,1.89,0,0,0,286,137s.11-.15.19-.29q-.23,8-.44,16.06c-.09,3.37-.16,6.73-.23,10.1q-14.46.54-28.91,1c-.08-3.82-.15-7.64-.17-11.46,9,.51,18,1.16,27,2C284.15,154.42,285.36,152.44,284.71,152.38ZM284.44,124c.57,0,1.57-.84,2.15-1.62q-.16,6.8-.35,13.6l-29.65.06c.06-4,.16-7.94.26-11.9Zm-27.51-2.76q.15-5.32.33-10.65,14.79-.22,29.56-.65c-.05,3.72-.12,7.43-.2,11.15h-.08ZM285.36,191q-14.17-.09-28.36-.15c0-3,0-5.95,0-8.93,0-1.23,0-2.46-.06-3.69q13.43,0,26.84.16a2.77,2.77,0,0,0,1.59-1.17Q285.29,184.12,285.36,191ZM257,192.45q14.19.06,28.38.16c0,1.21,0,2.42,0,3.63,0,2.5.12,5,.21,7.48l-28.75.36C256.93,200.2,257,196.33,257,192.45Zm28.35-15.7-.15,0q-14.16-.12-28.3-.16-.11-5.53-.23-11.07,14.06-.42,28.11-1a1.54,1.54,0,0,0,.74-.41Q285.4,170.43,285.35,176.75Zm-28.5,29.16,28.85-.36c.15,3.47.32,6.94.53,10.4-9.83-.59-19.66-.38-29.5,0C256.76,212.59,256.81,209.25,256.85,205.91Zm30.95,33.76c.05.84.09,1.68.14,2.52l-31.36.1c.06-3.3.1-6.61.11-9.91q15.27-.47,30.54-1Zm-31.1-10.23c0-.5,0-1,0-1.49,0-3.12,0-6.24,0-9.37a280,280,0,0,1,29.69.36c.2,3.18.41,6.35.63,9.53Q271.87,229,256.7,229.44Zm2.14-156.76c.09-1.76.17-3.52.26-5.28l27.16-.3q.3,6.12.45,12.25l-28.19.32C258.63,77.34,258.73,75,258.84,72.68Zm-.44,9.61,27.92-.3a1.27,1.27,0,0,0,.46-.11q.12,5.79.14,11.59l-29,.6Q258.13,88.19,258.4,82.29Zm27.9,13.84a1.64,1.64,0,0,0,.62-.2c0,3.73,0,7.46-.06,11.19q-14.75.42-29.5.65c.13-3.68.27-7.37.42-11ZM257.51,67.42q-.31,6.14-.62,12.27l-18.16.21a82.39,82.39,0,0,0-.41-12.27ZM238.28,88.69q.19-3.09.35-6.18l18.14-.2q-.28,5.89-.55,11.8L238,94.49C238.07,92.56,238.16,90.62,238.28,88.69ZM195.59,72.85c0-1.58,0-3.16,0-4.73l33.3-.39,7.42-.08a82.5,82.5,0,0,1,.54,12.27l-41.34.48C195.55,77.89,195.58,75.37,195.59,72.85ZM195.51,83l33.68-.39,7.59-.08c-.06,1.65-.15,3.3-.26,4.94-.14,2.35-.27,4.71-.41,7.06l-40.69.85C195.46,91.25,195.48,87.12,195.51,83Zm1.81,134.66c.24-3.67.43-7.35.53-11l30.9-.38,6-.08q.12,5.26.26,10.53Q216.16,217.3,197.32,217.66Zm37.74,1.77q.15,5.31.31,10.62-19.45.52-38.93.93c.22-3.53.47-7,.7-10.57q16.38-.33,32.74-.8ZM197.9,204.81c0-.28,0-.57,0-.85.06-3.71,0-7.42-.21-11.11q16.54-.34,33.09-.41h3.66q.09,6,.23,11.91Zm-.27-13.5c-.24-4.32-.6-8.64-1-13q15.21-.09,30.41-.13h7.22q.06,6.32.16,12.64Q216,190.92,197.63,191.31Zm30.52-25.08,6.07-.15c0,3.49,0,7,.05,10.47q-18.89,0-37.76.17c-.3-3.33-.6-6.65-.87-10Q211.9,166.56,228.15,166.23Zm-32.64-1.13c-.35-4.43-.62-8.87-.72-13.31,0-.33,0-.66,0-1,10.8,0,21.6.11,32.4.38l7.1.2c0,.38,0,.75,0,1.12,0,4,0,7.95,0,11.93Q214.87,164.9,195.51,165.1Zm35.6,68,4.36-.12q.1,3.42.22,6.84c0,.84.07,1.68.09,2.52l-39.87.12c0-1.05.06-2.11.1-3.16.07-1.79.16-3.58.26-5.36Q213.69,233.56,231.11,233.11Zm-.93,12.12,5.71,0c.13,3.73.27,7.45.41,11.18q-20.34,0-40.68.15c0-3.74.1-7.47.2-11.21Zm6-79.19q9.36-.22,18.72-.49c.08,3.67.16,7.35.22,11l-18.88,0C236.2,173.05,236.18,169.54,236.17,166Zm18.54-13.78c0,3.87.07,7.74.15,11.61q-9.35.27-18.69.52,0-6.48.05-12.94Q245.46,151.76,254.71,152.26Zm-18.48-2.8q.06-5.81.15-11.61l18.45,0q-.11,6.21-.13,12.41Q245.48,149.75,236.23,149.46Zm18.62-13.41-18.44,0q.12-5.93.28-11.84l18.44-.09Q255,130.1,254.85,136.05ZM195.38,98.13c11.33-.28,22.65-.58,34-.82l6.62-.14q-.32,5.43-.55,10.86-20.07.16-40.15.09Q195.34,103.13,195.38,98.13Zm-.23,20c0-2.42,0-4.83.08-7.25q17.28,0,34.57,0c1.83,0,3.66,0,5.49,0-.15,3.52-.29,7-.4,10.56l-39.8.22Zm-.12,6.35,32.53-.18,7.24,0q-.18,5.91-.3,11.83l-39.71.08C194.86,132.27,195,128.38,195,124.48Zm-.26,13.45,33.3-.06h6.4c-.08,3.84-.13,7.69-.17,11.53-13.18-.4-26.37-.55-39.56-.55C194.69,145.2,194.71,141.57,194.77,137.93Zm-70,80.39c-.09-3.6-.16-7.19-.23-10.79l1.75,0,24.81-.3c.11,3.68.18,7.37.23,11Q138,218.35,124.75,218.32ZM151.34,221q0,3.21,0,6.44c0,1.43,0,2.86,0,4.28q-13.14.19-26.28.32c-.11-3.66-.23-7.32-.33-11Q138.07,221.12,151.34,221Zm-26.86-15.22c0-2-.1-3.94-.13-5.91,0-1.3,0-2.59,0-3.89l4.17-.16c7.29-.33,14.57-.74,21.85-1.14.27,2.76.5,5.52.61,8.29,0,.82.06,1.64.09,2.46Q137.74,205.67,124.48,205.82Zm24.16-31.5c0,.93.06,1.86.1,2.78l-24.68.23c0-3.51,0-7,0-10.54l3.19,0q10.83.1,21.66.12C148.69,169.4,148.59,171.86,148.64,174.32Zm-22.54,4.61,22.73-.21c.3,4.85.86,9.68,1.34,14.52L136.6,194q-6.16.33-12.32.54c-.08-5.19-.16-10.38-.21-15.57Zm24.52-12q21.54.06,43.07-.2c.26,3.33.55,6.65.85,10l-10.4.06-33.41.3A87.8,87.8,0,0,1,150.62,167Zm37.84-71.43q-17.24.36-34.38.32-.14-6.19-.68-12.37L193.72,83q-.06,6.2-.13,12.4Zm5.1,2.65c0,3.31-.07,6.63-.11,9.94q-19.74-.06-39.49-.23c0-1.15.11-2.31.13-3.47,0-1.85,0-3.7,0-5.56C167.27,98.78,180.42,98.5,193.56,98.18Zm-40.08,17.56c.15-1.66.25-3.32.35-5q19.8.1,39.59.13c0,1.31,0,2.62,0,3.94,0,2.26-.08,4.52-.12,6.78l-40.6.22C153,119.8,153.31,117.78,153.48,115.74Zm39.73,8.75c-.07,3.89-.15,7.79-.21,11.68l-7.7,0-33.5.06a92.48,92.48,0,0,1,.47-11.52ZM151.82,138l41.16-.08q-.09,5.46-.08,10.91l-8.72,0c-10.74,0-21.49.19-32.24.35C152,145.48,151.89,141.75,151.82,138Zm.07,13.14c13.67-.2,27.34-.35,41-.35,0,4.78.3,9.56.65,14.32l-8.38.11q-17.24.14-34.46.07c.27-3.64.71-7.27,1-10.92C151.8,153.3,151.85,152.22,151.89,151.15Zm42-83-.12,12.28q-20.3.24-40.58.43-.28-2.82-.64-5.64c-.28-2.2-.61-4.39-1-6.59Zm-68.43.78,24.18-.27q1,6.09,1.59,12.22l-26.11.24C125.2,77.05,125.3,73,125.43,68.92ZM125,83.77q13.21-.12,26.44-.27.57,6.16.75,12.35-13.75,0-27.49-.36Q124.85,89.63,125,83.77Zm-.37,14.86,4.18.11c7.81.14,15.63.17,23.45.13,0,.27,0,.55,0,.82,0,2.71,0,5.45,0,8.19l-27.79-.24C124.51,104.64,124.58,101.64,124.64,98.63Zm-.33,16.21c0-1.42.06-2.85.09-4.27q13.88.11,27.75.17a83.45,83.45,0,0,1-1,10l-.15,1-26.79.14C124.25,119.6,124.27,117.22,124.31,114.84Zm-.13,10.06,26.41-.16a88.56,88.56,0,0,0-.73,9.48c0,.68,0,1.36,0,2l-25.82.05C124.08,132.5,124.14,128.7,124.18,124.9ZM124,138.06h3.61l22.23,0c.1,3.74.36,7.46.29,11.2v0l-26.18.39C124,145.78,124,141.92,124,138.06Zm2.9,13.46,23.16-.35c-.2,4.72-.75,9.42-1.12,14.13q-12.49,0-25-.17,0-6.8,0-13.57ZM51.8,84.11q26.15,0,52.29-.17,0,5.46,0,10.91-8.17-.3-16.38-.71c-12-.6-24-1-36-.67Zm-.16,12c17.46-.34,34.93.77,52.41,1.67,0,3.23,0,6.45,0,9.68l-16.23-.11-36.34-.19Zm-.26,18.65c0-1.6,0-3.2.07-4.8l52.62.45v11.66l-18.19.1-34.6.2Zm-.12,10.43q26.42-.08,52.83-.2v11.35l-19.74,0c-11.08,0-22.16,0-33.24.07C51.16,132.71,51.21,129,51.26,125.2Zm-.15,13c8.86-.07,17.72-.06,26.59-.07l26.4-.05c0,3.92,0,7.84,0,11.76Q94,150,83.88,150q-16.44,0-32.87-.44Q51.06,143.87,51.11,138.22ZM51,151.53c17.7.46,35.42.45,53.13.27v3.82q0,4.62,0,9.24c-6.59-.11-13.18-.22-19.77-.37q-16.73-.39-33.46-1C50.93,159.54,51,155.53,51,151.53Zm-.1,13.68q26.63.9,53.25,1.32,0,5.49,0,11l-20.64.2c-10.9.11-21.79.19-32.68.3C50.84,173.76,50.87,169.48,50.89,165.21Zm-.07,14.49c17.78-.14,35.55-.35,53.33-.54q0,7.86,0,15.71-9.19,0-18.38-.25c-11.68-.34-23.34-1-35-1.83Q50.81,186.25,50.82,179.7Zm-24.18,4.56c.08-1.48.21-2.95.36-4.43q10.89,0,21.77-.12,0,6.47-.07,12.93-10.19-.76-20.34-1.71a1.89,1.89,0,0,0-1.31.57,2.09,2.09,0,0,0-.5.71C26.5,189.56,26.51,186.9,26.64,184.26Zm22.24-19.12q-.06,6.45-.1,12.91-10.8.1-21.62.26c.25-2.25.52-4.51.72-6.77s.37-4.78.51-7.17Q38.64,164.79,48.88,165.14Zm-20.4-2.4c0-.67.08-1.33.11-2q.19-5,.13-10.07,10.13.51,20.27.8c0,.63,0,1.27,0,1.91,0,3.36,0,6.73-.08,10.09Q38.69,163.13,28.48,162.74Zm-1.93,29.49a.12.12,0,0,0,.12.13q11,1.08,22,1.91,0,5.5,0,11-10.8-.45-21.6-1.22C26.84,200.12,26.63,196.18,26.55,192.23Zm.79,17.89c-.05-1.4-.12-2.8-.19-4.21,7.16.55,14.32,1,21.49,1.24q0,5.08,0,10.17-10.51-.25-21-.55Zm.37,9.27q10.45.35,20.91.63,0,6.18,0,12.37H28.78a1.2,1.2,0,0,0-.56.19Zm.93,23.66c-.09-2.17-.18-4.35-.26-6.52,0-.45,0-.9-.05-1.35q10.16.12,20.31.17v4c0,1.19,0,2.38,0,3.57C42,243,35.31,243,28.64,243.05Zm.1,2.68c6.65,0,13.29,0,19.94,0q0,6,.07,12.06-9.76.12-19.53.27Zm.69,17.45-.1-2.47,19.43-.16q0,5.82.1,11.65c-5.81.07-11.62.13-17.43.22a3,3,0,0,0-1.6,1.09C29.65,270.07,29.56,266.62,29.43,263.18Zm2.16,23.73a2.78,2.78,0,0,0-.21-1.62c-.28-1.06-.53-2.12-.72-3.19a55.18,55.18,0,0,1-.69-6c0-.29,0-.57,0-.86l19-.15c0,3.88.07,7.75.11,11.62Q40.29,286.78,31.59,286.91ZM49,149.45q-10.17-.27-20.32-.71,0-2.73-.18-5.46c-.07-1.52-.17-3-.27-4.55,7-.28,13.91-.41,20.87-.49C49.08,142,49,145.72,49,149.45Zm.12-13c-6.88.09-13.76.26-20.63.59a1,1,0,0,0-.36.16c-.29-4-.62-8-.88-12l22-.06Q49.19,130.84,49.13,136.48Zm.76-55H30.64c-1,0-3.67,2.53-2.27,2.54q10.74.06,21.47.06l-.15,9.43c-6.41.23-12.82.69-19.21,1.46-1,.12-3.55,2.72-2.24,2.57,7.14-.8,14.28-1.22,21.42-1.41-.06,3.67-.12,7.33-.17,11l-20-.11c-1,0-3.51,2.71-2.05,2.72l22,.18c-.06,4.15-.1,8.29-.16,12.44q-10.15.06-20.33.14a3.48,3.48,0,0,0-1.8,1.26c-.2-3.24-.34-6.49-.36-9.75-.08-13.34.67-26.73,1.51-40l.27-4.11,21.5-.2Q50,75.6,49.89,81.51Zm.91,119.15c0-2.08,0-4.15,0-6.23,17.76,1.29,35.56,2,53.36,2q0,4.8,0,9.58-10.53.06-21.05,0c-10.78-.05-21.55-.24-32.31-.66C50.82,203.8,50.8,202.23,50.8,200.66Zm0,6.58c17.77.67,35.57.68,53.36.52,0,3.49,0,7,0,10.46q-9.3-.08-18.59-.18-17.37-.24-34.74-.67C50.85,214,50.83,210.62,50.83,207.24Zm.05,12.84q26.66.69,53.32.91l0,11.27-18.43.11q-17.43.06-34.87,0Q50.89,226.24,50.88,220.08Zm0,15.29q26.64.15,53.29,0c0,2,0,3.93,0,5.9v1.54l-16.94,0L51,242.94C51,240.42,51,237.89,50.93,235.37Zm0,10.35q26.63,0,53.25-.09,0,5.77,0,11.55l-17.48.16q-17.83.18-35.67.4Q51,251.74,51,245.72Zm.13,14.81,53.14-.45c0,3.83,0,7.66,0,11.48l-15.5.17q-18.78.21-37.55.44Q51.15,266.35,51.11,260.53Zm38.11,25.81q-19,.17-37.94.33a.49.49,0,0,0,0-.16c0-3.82-.06-7.64-.1-11.46q26.52-.21,53-.5,0,5.82,0,11.66Zm15.07-216q-.14,5.45-.19,10.89c-5.36,0-10.72.1-16.09.13q-18.08.1-36.17.11c0-3.94.11-7.89.16-11.84q35.91-.33,71.83-.73a.88.88,0,0,0-.34.51c-.15,3.89-.26,7.79-.39,11.68l-17,.13q0-6,.13-12C106.22,68.8,104.31,69.74,104.29,70.38Zm1.78,13.54,17-.14q-.19,5.84-.34,11.66-8.31-.21-16.63-.51C106.05,91.26,106.05,87.59,106.07,83.92Zm0,14c5.52.28,11,.53,16.54.69-.07,3-.15,6-.21,9l-16.3-.13Zm0,18.9c0-2.12,0-4.24,0-6.36l16.22.12c-.08,3.81-.12,7.62-.18,11.44l-16,.08C106.12,120.31,106.12,118.55,106.11,116.79Zm0,8.2,16-.08q-.07,5.7-.14,11.4l-15.81,0C106.14,132.56,106.13,128.77,106.13,125Zm0,13.1,15.8,0c0,3.86-.06,7.73-.07,11.6l-15.71.18Q106.16,144,106.15,138.09Zm0,13.69q7.85-.08,15.7-.19c0,.56,0,1.12,0,1.69,0,3.94,0,7.88,0,11.82-5.24-.06-10.47-.11-15.7-.2Q106.18,158.35,106.17,151.78Zm0,14.77c5.24.09,10.47.15,15.7.21,0,3.53,0,7.06,0,10.59l-15.73.16C106.2,173.86,106.2,170.21,106.19,166.55Zm0,12.59L122,179q.06,7.8.17,15.62-7.95.24-15.89.27Zm0,23.25c0-2,0-4,0-6q8,0,15.91-.29c0,3.24.13,6.49.19,9.74q-8,.09-16.09.13Zm0,5.35,16.11-.18c.07,3.58.13,7.17.22,10.75q-8.16,0-16.32-.07C106.27,214.74,106.26,211.24,106.26,207.74Zm0,13.26q8.19.06,16.39.08c.09,3.67.2,7.35.31,11q-8.34.09-16.68.15Q106.29,226.63,106.28,221Zm0,14.31q8.39-.06,16.77-.15c.05,1.51.08,3,.13,4.54,0,1,.07,2,.11,3l-17,0C106.31,240.28,106.31,237.79,106.3,235.31Zm0,10.31,17.09,0c.13,3.81.28,7.62.43,11.43l-17.5.15C106.33,253.32,106.33,249.47,106.32,245.62Zm0,14.45,17.62-.15c.15,3.81.32,7.61.49,11.42l-18.09.2Q106.36,265.79,106.34,260.07Zm0,26.12q0-5.83,0-11.66l18.22-.19q.27,5.84.57,11.68Zm18.85-51.05q13.1-.13,26.2-.34c0,2.6,0,5.21,0,7.81l-26,.09C125.38,240.18,125.32,237.66,125.24,235.14Zm.34,10.43,25.91-.09q0,5.67,0,11.32L126,257C125.87,253.18,125.71,249.38,125.58,245.57Zm25.91,33.94c0,2.09,0,4.18,0,6.28l-24.12.21q-.3-5.83-.56-11.68,12.35-.13,24.71-.24C151.49,275.89,151.49,277.7,151.49,279.51Zm0-8.45-24.86.26c-.17-3.81-.34-7.61-.5-11.42l25.37-.19Q151.51,265.4,151.5,271.06Zm-.64-92c0-.13,0-.26,0-.39q21.91-.19,43.84-.34c.39,4.33.75,8.66,1,13-2.76.06-5.52.12-8.28.2-11.75.35-23.48.93-35.22,1.57C151.77,188.45,151.25,183.77,150.86,179.09Zm2,24.26c-.1-2.92-.31-5.83-.56-8.74,9.11-.51,18.22-1,27.34-1.29q8.07-.27,16.12-.43.18,3.11.25,6.22c.05,1.91,0,3.82,0,5.73l-10.8.13q-16.16.21-32.3.47C152.92,204.74,152.91,204,152.88,203.35Zm.52,53.44c0-3.77,0-7.54,0-11.31l40.62-.14c-.12,3.74-.19,7.47-.24,11.21Q173.58,256.64,153.4,256.79Zm40.33,13.92q-20.17.14-40.34.34c0-3.79,0-7.57,0-11.35q20.16-.15,40.31-.26Q193.67,265.08,193.73,270.71Zm-40.36,15.06c0-3.9,0-7.81,0-11.71q20.2-.18,40.41-.31c0,2.44.06,4.88.13,7.32,0,1.45.09,2.89.13,4.34Zm40.94-49.6c-.1,2.1-.16,4.2-.23,6.31l-40.73.13c0-2.62,0-5.23,0-7.84q20.55-.33,41.1-.79C194.39,234.71,194.34,235.44,194.31,236.17Zm.28-5.15q-20.64.42-41.27.72c0-.34,0-.68,0-1q0-4.86-.07-9.7,21-.15,42.06-.58C195.06,224,194.81,227.49,194.59,231Zm-6.85-13.16c-11.51.2-23,.31-34.53.39q-.08-5.53-.22-11.07l43-.52c-.09,3.68-.28,7.36-.51,11Zm7.87,41.57q17.05-.09,34.13-.15h6.67q.21,5.63.43,11.27-20.59,0-41.18.16Q195.59,265.08,195.61,259.43Zm.39,26q-.19-5.82-.3-11.65,18.26-.11,36.5-.14H237c.15,3.8.3,7.61.46,11.41Zm58.18-5.65-.08,5.14-14.68.13-.45-11.4h15.31Q254.24,276.68,254.18,279.74Zm.15-9.19-15.49,0q-.22-5.62-.43-11.27l16.1,0Zm.23-14.2-16.26,0-.42-11.17,16.83-.05Zm.18-14.06-17,.05c-.11-3.13-.2-6.27-.3-9.41q8.67-.24,17.35-.5C254.8,235.72,254.78,239,254.74,242.29Zm.14-19.29c0,2.17,0,4.33,0,6.49l-17.46.51c-.11-3.55-.23-7.09-.33-10.64,5.95-.23,11.9-.51,17.85-.72C254.89,220.09,254.88,221.55,254.88,223Zm0-7c-5.22.2-10.44.43-15.65.59l-2.28.07q-.15-5.25-.27-10.5l18.3-.23C255,209.29,255,212.64,254.92,216Zm.13-11.9-18.37.23c0-1.34-.08-2.68-.11-4,0-2.63-.09-5.25-.14-7.87q9.38,0,18.73,0C255.14,196.33,255.09,200.22,255.05,204.1Zm.12-13.25q-9.37,0-18.77,0-.09-6.32-.16-12.63c6.3,0,12.59,0,18.89,0C255.19,182.43,255.19,186.64,255.17,190.85Zm.13-72.53c0,1-.05,2-.08,2.94l-18.44.1c.09-2.78.18-5.57.28-8.35,0-.74.07-1.48.1-2.21q9.21-.06,18.41-.18C255.48,113.18,255.38,115.75,255.3,118.32Zm-18-10.3c.15-3.63.33-7.26.52-10.88l18.3-.38q-.23,5.52-.44,11Q246.48,107.94,237.29,108Zm50.59,176.56-32,.28.18-11.24q16.18,0,32.38.16Q288.25,279.18,287.88,284.58Zm.64-13.89q-16.2-.12-32.42-.14l.18-11.31q15.57,0,31.13-.05a2.27,2.27,0,0,0,1.16-.55Q288.66,264.65,288.52,270.69Z"/><path d="M255.9,40c1.13,1.73,3.57.85,5,.07.4-.2.79-.43,1.17-.67a37.4,37.4,0,0,1,5.29.14c-3.26,4.57-6.48,9.17-9.59,13.83-.27.42-.07.59.36.54a2.44,2.44,0,0,0,1.43-1q3.75-5.54,7.6-11c-.78,3-1.68,6-2.74,8.93-.17.48.42.34.67.26a2.26,2.26,0,0,0,1.22-1l.84-1.65c.12-.22,0-.31-.15-.32,1-2.75,1.79-5.54,2.49-8.37,1.33.22,2.65.51,4,.81a3.35,3.35,0,0,0,3.22-.72c1-.92.85-1.93.4-3.11a28,28,0,0,0-2.31-4.65c-.08-.13-.17-.26-.26-.39.49-.66,1-1.33,1.45-2l2.31-3.08c1.49-1.3,3-2.6,4.4-3.94.51-.47.78-1.3-.23-.88a14.19,14.19,0,0,0-5.69,4.84c-1.22,1.05-2.45,2.1-3.69,3.12-.53-.66-1.07-1.34-1.54-2a5.52,5.52,0,0,0-1.48-4.1c-.5-.48-2,.66-2,1.24a7,7,0,0,0,1.44,4c0,.38,0,.77,0,1.15-.08,1-.22,2-.37,3q-2.79,2.16-5.65,4.22l-.8.61a40.75,40.75,0,0,0-5.15.66C257.1,38.61,255.54,39.45,255.9,40Zm18.35-9.89-.44.61-.12-.15C273.88,30.42,274.07,30.27,274.25,30.11Zm-3,1.15,0,0,0,0ZM271,32.73l.82-.64c.16.22.31.45.46.68l-1.73,2.34C270.72,34.32,270.87,33.53,271,32.73Zm-.55,4.6c.84-1.16,1.69-2.3,2.53-3.46.33.56.66,1.13.95,1.71s.63,1.31.91,2c.14.33.28.67.39,1a2.18,2.18,0,0,1,.14.48c-1.18-.25-3.39-.69-3.69-.74-.58-.09-1.16-.16-1.75-.23Zm-2.28-2.4c.22-.16.43-.34.65-.51-.15.83-.31,1.66-.47,2.48-.07.34-.15.67-.22,1l-1-.08c-.9,0-1.8,0-2.69,0C265.73,36.85,267,35.86,268.18,34.93Z"/><path d="M315.89,69.27c-.45-21.64-.4-44.2-4.77-65.48v0a13.86,13.86,0,0,0,.78-1.6A1.52,1.52,0,0,0,310.28,0q-117,4.57-234,3.38c-21.91-.25-44-1-65.87-.39C9.08,3,5.94,5.47,5.26,7A4,4,0,0,0,4.07,8.79C1.19,28.11.74,47.91.28,67.41S0,106.14.22,125.49q.6,59.12,1.55,118.22.48,32.73,1,65.46c0,.92.92,1.07,2.15.74,18.35,3.52,37.73,3.64,56.34,3.37,19.25-.28,38.49-1.36,57.7-2.48,38.81-2.27,77.6-2.42,116.46-3l67.14-1.06a5.78,5.78,0,0,0,2.85-1.2c0,.31,0,.62,0,.93.14,3,9.34-2,9.19-5.31C311,223.78,317.48,146.6,315.89,69.27Zm-9,55.43c-1,38.54-2.75,77.09-2.92,115.65q-.12,28.46,1,56.89-56.22.93-112.45,2c-18.85.32-37.66.78-56.48,1.91-19.5,1.17-38.95,3.07-58.47,3.95A629.75,629.75,0,0,1,12,304.2a2,2,0,0,0,.09-.63c-1.27-77.84-3.76-155.8-3-233.65.21-20.53,1.39-41.06,1.57-61.57,5.94.14,15.05.47,26.2.55C45.66,9,54.4,9,63.13,9.3c19.53.64,39.09.66,58.63,1,38.66.71,77.31.14,116,.06,20.28,0,40.56-.76,60.83-1.51a1,1,0,0,0,.81,1.31,9,9,0,0,0,5.17-.58c.53,18.86,2.46,37.69,2.93,56.57C308,85.67,307.42,105.21,306.91,124.7Z"/><path d="M239.61,36.43A86.24,86.24,0,0,0,247.88,33c.25,0,.49,0,.74,0h1c-.06.17-.12.35-.17.52l-5.08,5.08c-.13.13-.72.77-.31.9s1-.43,1.28-.68l3.53-3.52c-.77,2.34-1.59,4.66-2.54,6.93a3.21,3.21,0,0,0-.24.36c-.2.37-.6.65-.56,1.12,0,.15.2.2.32.17,1.76-.48,2.26-2.57,2.85-4.06.79-2,1.49-4.09,2.16-6.15l.18-.55a.71.71,0,0,0,.07-.09,43,43,0,0,0,6.11-.08c.45-.05,1.78-1,1.53-1.61a37,37,0,0,1-1.31-3.56c1.44-.89,2.86-1.8,4.25-2.75.27-.18.92-.78.84-1.16s-.46-.28-.75-.08c-1.52,1-3.08,2-4.66,3-.58-2-1.07-4-1.55-6-.19-.78-1.65.81-1.77,1.05a72.72,72.72,0,0,0-3.35,8.66l-1.58.79c-.21,0-.42,0-.63,0a12.79,12.79,0,0,0-8.78,4.23C239.14,35.84,238.79,36.72,239.61,36.43Zm14.57-12.38c.31,1.28.64,2.55,1,3.81-1,.57-2,1.12-3,1.66C252.82,27.68,253.46,25.85,254.18,24.05Zm-2.49,7c1.29-.69,2.56-1.4,3.81-2.14.24.78.51,1.56.8,2.33-1.55,0-3.1,0-4.65-.07Z"/><path d="M73.13,30.57c-.45,1.94-1,3.85-1.57,5.75l-.78,2.5c-.1.3-.21.77-.34,1.23a17,17,0,0,1-.64-4.17,19.27,19.27,0,0,1,.77-5.6c.35-1.22-1.2,0-1.45.35a22.08,22.08,0,0,1-2.58,3.31.84.84,0,0,0,.17-.39c0-1.31-1.3-1.61-2.3-1-1.44.84-2.13,2.47-2.73,3.94A27.09,27.09,0,0,0,60,42.3c-.22,1.34-.68,3.49.4,4.61s2.88.2,3.91-.5a8.72,8.72,0,0,0,3.08-3.67,6.12,6.12,0,0,0-1.43-7c.13-.11.26-.22.37-.33a27.68,27.68,0,0,0,2-2.09,20,20,0,0,0-.36,3,14.66,14.66,0,0,0,.43,4.9c.35,1.05,1.16,1.54,2.11.86,1.24-.89,1.5-2.55,1.93-3.9A105.9,105.9,0,0,0,75.27,28c.39,2.12.79,4.23,1.18,6.35a5.35,5.35,0,0,0-1.68,3.48c0,1.84,1.73,3.06,3.12,4,.66.43,1.89-1.18,1.78-1.77l-1.2-6.38.42-.41c.81-.83,1.65-1.63,2.51-2.4.51-.46,1.08-.93,1.66-1.4a23.25,23.25,0,0,0-1,3.87c-.22,1.23-.64,3,.09,4.16.9,1.4,2.56.26,3.39-.6A13,13,0,0,0,89,29a16.08,16.08,0,0,0,1.66,5.52c.4.76,1.72-.89,1.83-1.28a9.81,9.81,0,0,1,4-5.66c.35-.24,1.13-.94,1-1.42s-.44-.37-.82-.12a14.66,14.66,0,0,0-4.83,5.28,15.12,15.12,0,0,1,0-11.26c.36-.89-.69-.48-1-.15Q89.42,21.35,88,22.74c0-.11,0-.21,0-.32.05-1-1.36.35-1.53.57-.5.7-1,1.43-1.4,2.17a3.24,3.24,0,0,0-.78,1.31c0,.05,0,.09,0,.13-.11.21-.2.44-.31.66-.54.46-1.12.89-1.64,1.33-1.42,1.21-2.76,2.5-4.06,3.83l-.58-3.13c-.34-1.79-.67-3.57-1-5.35l-.45-2.43h0c.05-.68.1-1.35.12-2a3.67,3.67,0,0,0-.16-1.87L76,17.55a2.78,2.78,0,0,0-2.22,2.69,14,14,0,0,0,.51,2.8c-.08,1-.15,1.79-.17,2A55.66,55.66,0,0,1,73.13,30.57Zm-8.91,3.55a.76.76,0,0,1,.82.73.81.81,0,0,1-.38,0l-.36-.18a.78.78,0,0,0-.63.12C63.81,34.45,64,34.17,64.22,34.12Zm1.9,6.93a4.42,4.42,0,0,1-.81,3.17c-.62.76-2,1.64-3,1-1.54-1-.45-4.57-.12-6A22.3,22.3,0,0,1,63,36.74a1.17,1.17,0,0,0,.26.1A5.72,5.72,0,0,1,66.12,41.05Zm23.41-18.4a16.89,16.89,0,0,0-.61,3.64,2.52,2.52,0,0,0-1.18-1.93C88.34,23.8,88.93,23.23,89.53,22.65Zm-5.71,9.72a21.28,21.28,0,0,1,.71-3c.19-.6.41-1.19.65-1.78a11.58,11.58,0,0,0,1.08-1.14,1,1,0,0,1,.25.22,2.69,2.69,0,0,1,.59,1.46,10,10,0,0,1-.1,3.37c-.18.93-2.12,6.34-3.22,3.9A5.53,5.53,0,0,1,83.82,32.37Zm-7.1,3.4.36,1.92A2.09,2.09,0,0,1,76.72,35.77Z"/></svg>
