<svg id="Layer_1" data-name="Layer 1" xmlns="http://www.w3.org/2000/svg" viewBox="0 0 320.69 318"><path d="M320.64,290c-.07-5.32-.18-10.65-.27-16q-.25-14.47-.5-28.95c-.33-19.61-.75-39.22-1.14-58.83-.78-39.48-.79-79.08-2.57-118.53-.47-10.62-2.31-21.06-3-31.67-.62-9.27-.06-19.32-1.72-28.61,1.71-1.58,2.92-3.43,1.24-4.36-3.59-2-7.82-1.54-11.81-1.54-5.34,0-10.69-.09-16-.14q-14.54-.12-29.07-.22C236,1.08,216.34,1,196.63.87,156.92.58,117.22.64,77.51.67,66.46.68,55.43.81,44.39.89L28.33,1C27,1,15,1.21,11.24,1.3l0-.53a.65.65,0,0,0-.5-.61C8-.86,3,3.18,3.68,6A3.87,3.87,0,0,0,2.49,7.7C0,27.14,1,47.21.56,66.78S0,106.19,0,125.89c0,39.61.56,79.18,1.42,118.78.25,11.35.42,22.7.69,34q.18,8,.4,16c.15,5.81-.21,12,1.06,17.66a1.36,1.36,0,0,0,1.11,1.16.9.9,0,0,0,.45.33c8.45,3,18.6,3,27.48,3.43,10,.48,19.91.63,29.87.68,19.49.09,39-.36,58.48-1.3,39.41-1.9,79.1-4.2,118.56-3.43,11,.21,21.91.78,32.84,1.61,11.25.86,23.84,3.65,34.71.05,1.14-.38,6.51-3.83,8.38-6.76a15.49,15.49,0,0,0,3.62-4.29C321,299.24,320.7,295,320.64,290Zm-62.46,9.28s0,.09-.06.19c-5.74-.17-11.48-.24-17.22-.24l.13-.09a211.75,211.75,0,0,0,19.6-15.05A209.6,209.6,0,0,0,294,247.5a84.87,84.87,0,0,0,9.43-16.16c.1,4.78.19,9.56.3,14.34q.14,6.3.29,12.61c-7.73,13-16.65,25.5-29.94,33.33A142.41,142.41,0,0,1,258.18,299.32ZM287.62,11.4c5.18.1,10.2.47,15.22-.22-.93,7.86-.7,16-.66,24a27.48,27.48,0,0,0-3.1-6.35c-2.69-4-6.68-6.73-10.1-10a23.22,23.22,0,0,1-4.32-5.45,16.16,16.16,0,0,1-.9-2Zm-17.91-.35,13.19.26a18.5,18.5,0,0,0,.24,2.9c.79,4.29,3.81,7.74,6.94,10.57s6.8,5.62,9.23,9.34a27.62,27.62,0,0,1,2.84,5.93c-.16,9.37-1.17,18.65-1.57,28-.43,9.73-.35,19.52-.12,29.32a306.81,306.81,0,0,0-8.8-37.64,180.86,180.86,0,0,0-8.29-23.31c-2.9-6.32-6.78-12.51-12.6-16.51-3.73-2.56-8.07-3.54-12.14-5.36a15.07,15.07,0,0,1-5.24-3.6c-.07-.07-.12-.15-.18-.22Zm-70.21,288a4,4,0,0,0-.07,1.28c-8.12.4-16.24.93-24.35,1.52a171.25,171.25,0,0,0,17.5-5.75,109.78,109.78,0,0,0,29-17c8.78-7.17,16.61-15.42,24.38-23.65,8.58-9.08,17.3-18.05,25.73-27.27,3.65-4,7-8.33,8.52-13.61s1.32-11,1.23-16.4c-.22-12.08-1.35-24.21-2.58-36.22A604.2,604.2,0,0,0,266.68,88c-2.48-10.81-5.52-22-12.35-30.92a38.78,38.78,0,0,0-10.86-9.84,32,32,0,0,0-13.4-4.1c-3.29-.34-7.53-.94-8.67-4.34,0-.64,0-1.28,0-1.69a28.64,28.64,0,0,0-.12-4.81A8.22,8.22,0,0,0,217.52,27c-5.11-3.37-11-2.43-16.64-1.19-3.62.8-7.34,1.67-11.07,1.21a23.86,23.86,0,0,1-9.13-3.61,75.74,75.74,0,0,0-8.83-4.75,48.09,48.09,0,0,0-8.79-2.72,49.42,49.42,0,0,0-36.37,6.49c-2.89,1.84-5.67,3.93-8.88,5.18a19.54,19.54,0,0,1-9,1.12c-6.46-.64-12.44-3.66-18.39-6-6.12-2.42-12.3-4-18.93-3.45a47,47,0,0,0-18.34,5.83C44.83,29.6,37.94,36,31.18,42.56,21.26,52.2,13.12,63.82,9.06,76.93c0-1.93,0-3.86,0-5.78C9,64.25,9,57.35,9,50.46A94.65,94.65,0,0,1,22.49,33.52C26.63,29.34,31,25.45,35.58,21.7s9.24-7.76,14.32-10.9a31.63,31.63,0,0,1,4.17-2.14q18.93.09,37.84.22A23.66,23.66,0,0,1,102.34,14c3.45,3.09,6.73,7.47,11.78,7.63,4.63.15,8.46-3.25,11.85-6S133.32,9.79,138,10.2a5.92,5.92,0,0,1,0-1q20.64.15,41.28.34c9.76,4.41,20.26,8,30.92,7.28a31.27,31.27,0,0,0,9.44-2.13c.67-.27,1.33-.56,2-.88a6.51,6.51,0,0,1,1.3-.69c.61-.1.13-.5.55.17a12.83,12.83,0,0,1,.71,2.06c.29.74.62,1.46,1,2.17a27.81,27.81,0,0,0,12,12.16c5.88,3,12.76,3,18.57,6.24a31.75,31.75,0,0,1,11.2,11c6.53,10.28,9.05,22.65,11.72,34.36a650.81,650.81,0,0,1,14.23,91.42c.33,4,.58,7.93.7,11.91l0,1.46c0,.18,0,.32,0,.44s0,.23,0,.38c0,1-.05,1.92-.09,2.87q-.15,3.22-.49,6.43a81.52,81.52,0,0,1-5.32,21.35c-4.9,12.26-12.22,23.63-20.53,33.84a154,154,0,0,1-59,44.33Q203.9,297.53,199.5,299.08ZM80,308.69q-6.51.22-13,.35l-1.31-.26c-15.8-3.37-32.5-10.76-42.44-24a34,34,0,0,1-5.37-10.23A26.89,26.89,0,0,1,16.7,269c0-.1,0-.21,0-.32.09-.88.21-1.75.38-2.62,1.34-7.24,5-13.81,8.43-20.23s6.94-13,8.11-20.29a67.77,67.77,0,0,0,.44-11.83,60.51,60.51,0,0,0-1.14-10.74c-1.25-6.33-3.56-12.35-5.31-18.54a43.61,43.61,0,0,1-1.43-7.14c.07-.55.15-1.09.26-1.63a20,20,0,0,1,1.29-3.92C30.52,165.53,36,161.22,42,158.48a30.91,30.91,0,0,0,0-5,44.09,44.09,0,0,1-5.74-2.36C23.5,144.61,15,132.06,10.35,118.78q-.54-1.59-1-3.21-.16-16.92-.24-33.86.6-2,1.32-3.9c4-10.58,10.65-20,18.52-28C37.05,41.5,45.78,33.4,56.42,28.46,63.8,25,72.05,23.25,80.16,24.6c8.27,1.37,15.54,5.89,23.55,8.12a23.58,23.58,0,0,0,11.61.64c4.18-1,7.62-3.53,11.16-5.8A48.58,48.58,0,0,1,149.29,20a49.23,49.23,0,0,1,23.41,4c3.84,1.71,7.24,4.19,11,6.05a20.29,20.29,0,0,0,13,1.61c7.19-1.26,15.28-4.26,21.72.92A8.19,8.19,0,0,1,221,36a5,5,0,0,1,.16.51c0,.46,0,.92,0,1.32-.05,3.54-.58,7.37,3.21,9.08,3.05,1.36,6.54,1.12,9.77,1.73a29.27,29.27,0,0,1,10.5,4.3C251.41,57.4,256.4,64,259.81,71.31c3.86,8.24,5.89,17.19,7.84,26q3.24,14.6,5.74,29.33,5,29.43,7.14,59.24c.34,4.84.66,9.69.85,14.54,0,.43,0,.85,0,1.28a.72.72,0,0,0,0,.13c-.06,1.34-.18,2.68-.37,4a27.29,27.29,0,0,1-1.72,6.4,37.59,37.59,0,0,1-7.1,10.42c-3.19,3.53-6.52,6.95-9.79,10.41-6.72,7.11-13.41,14.25-20.16,21.33A238,238,0,0,1,223,273a107.52,107.52,0,0,1-22.23,14.55,149.44,149.44,0,0,1-25.21,9.22c-8.61,2.39-17.34,4.27-26.08,6.13l-8.26,1.74C120.81,306.35,100.41,308,80,308.69ZM14.11,187.16c.9,3.14,2.23,6.14,3.18,9.26a37.1,37.1,0,0,1,1.53,8.36c-.1-2.3.1-1.36.06-.44,0,.2,0,.4,0,.61,0,0,0,.09,0,.14,0,.39,0,.78,0,1.16,0-.49,0-.89-.07-1.24,0,.58-.07,1.17-.13,1.76-.15,1.41-.38,2.82-.67,4.21a39.73,39.73,0,0,1-7,15.37c-.31-12.33-.53-24.66-.74-37q-.24-14.42-.45-28.83c1.94.78,3.92,1.53,5,3.47a7.19,7.19,0,0,1,.66,1.72,25.17,25.17,0,0,1-.72,2.81,29.4,29.4,0,0,0-1.69,8.88A33,33,0,0,0,14.11,187.16ZM9.17,19c0-3.64-.11-7.28-.37-10.88.44,0,.86,0,1.24,0,3,.09,6,.28,9,.32l-.23.2A75.66,75.66,0,0,0,9.17,19Zm272.27,182a1.32,1.32,0,0,1,0,.5A3.44,3.44,0,0,1,281.44,201.07Zm-62.8-191c-8.21,3-17.07,2-25.48-.37Q205.91,9.85,218.64,10.07Zm-90.81-.94c-3.47,2.7-6.73,6-10.8,7.14-4.89,1.39-8.75-1.55-12.09-4.78-.89-.86-1.77-1.73-2.7-2.55h.15ZM45.72,8.62c-2.39,1.76-4.68,3.67-7,5.5-4.47,3.6-8.87,7.31-13,11.26A100.48,100.48,0,0,0,8.94,45.48q0-4,0-8c0-4.41.14-8.89.19-13.38A74.16,74.16,0,0,1,23,10.22c.42-.33,1.3-1.07,2.26-1.7h3.3v.21a2.6,2.6,0,0,1,0,.73,1.17,1.17,0,0,0,.36-.94l7.75,0ZM12.55,308.37a3.64,3.64,0,0,0,.8-1.58c1.11-9.49-.14-19.43-.52-29-.4-9.91-.71-19.84-1.09-29.75q-.33-8.44-.55-16.9c6.93-9.43,8.78-21.36,7.5-32.92a40.5,40.5,0,0,0-2.1-8.94c-1.16-3.33-2.59-6.62-3.17-10.12a2.51,2.51,0,0,1,0-.27c0,.29-.09.6-.16,1,.06-.31.11-.63.16-1s-.08-.54-.11-.81c-.19-1.64.39-1.36.11.78.09-.53.17-1.06.3-1.59.43-1.7,1.06-3.34,1.53-5a29,29,0,0,0,.62-9.83,7,7,0,0,0-4.55-6.34c-.43-.19-.94-.38-1.47-.58q-.26-17.4-.43-34.81c3.47,12.16,9.94,23.33,20.1,31.13a44.42,44.42,0,0,0,6.8,4.28l.56.25c-5.23,3.54-9.43,8.59-10.52,15a41,41,0,0,0-.1,11.33,56,56,0,0,0,2.55,10.44C30,197.06,31.32,201,32.29,205a66.45,66.45,0,0,1,1.27,6.7q.27,1.92.39,3.84c0,.4,0,.8.06,1.2s0,.52,0,.78c-.6,9.5-5.61,17.93-9.95,26.15a81.49,81.49,0,0,0-5.7,12.64,39.29,39.29,0,0,0-1.74,11.44c0,.4,0,2.07,0,2.56a31.08,31.08,0,0,0,2.89,13.37,41.31,41.31,0,0,0,8.91,11.88,68,68,0,0,0,21.73,13.62c-1.5,0-3,0-4.49-.05C34.68,308.88,23.47,307.71,12.55,308.37ZM210,299.9a154.12,154.12,0,0,0,52.64-38.2A142.84,142.84,0,0,0,284.89,229a85.48,85.48,0,0,0,7.15-21,117.51,117.51,0,0,0,1.64-22.4c0-15.47-1.85-30.94-3.82-46.26q-3.06-23.7-7.79-47.13Q279.72,80.51,277,69a128.23,128.23,0,0,0-5.11-17.17,49.33,49.33,0,0,0-8.37-14.53,28.27,28.27,0,0,0-14.37-8.91c-3.54-.94-7.19-1.51-10.56-3a27.31,27.31,0,0,1-7.23-4.74,28.14,28.14,0,0,1-5.63-7.12,25.23,25.23,0,0,1-1.52-3.3l9.75.19c5.67.12,11.35.22,17,.33a8.77,8.77,0,0,0,1.74,4.38c2.59,3.51,6.76,4.88,10.7,6.28A29.66,29.66,0,0,1,273.44,27a36.44,36.44,0,0,1,6.91,8.62c4.16,7,6.74,14.85,9.25,22.54q4.45,13.63,7.62,27.65c1.31,5.79,2.43,11.63,3.4,17.48.22,8,.5,15.89.67,23.8q1,49.71,2.07,99.44a76,76,0,0,1-6.59,12,190,190,0,0,1-14.23,18.61,211.45,211.45,0,0,1-33.93,31.64q-5.18,3.85-10.57,7.38c-1.64,1.07-3.3,2.11-5,3.14Q221.54,299.44,210,299.9Zm57.85,0a71.14,71.14,0,0,0,16.42-10.76c6.85-6.21,12.33-13.77,17.2-21.59q1.36-2.21,2.68-4.44.18,7.69.37,15.41c0,1.49.07,3,.1,4.47a73.2,73.2,0,0,1-11.9,13.31c-1.5,1.32-4.33,4.28-6.44,2.52a7.59,7.59,0,0,1,0,2.25C280.14,300.61,274,300.2,267.86,299.9Zm24.61,1.63.12-.1a74.06,74.06,0,0,0,12.16-13.6l.15,6.61c.06,2.42-.16,5.23,0,8l-1,0C300.08,302.11,296.28,301.82,292.47,301.53ZM215,226.09a118.87,118.87,0,0,1,11-12.27c3.08-3,11.79-10.59,13.53-2.36.33,1.55,2.73.09,3.34-.3,19-12,5.51-39,.45-55-2.15-6.75-4.67-13.51-6.51-20.36-.94-3.48-.81-6,1.19-9.11,1.19-1.86,2.62-3.5,3.4-5.61,1.38-3.72.12-6.85-2-10a36.62,36.62,0,0,1-3.56-5.27c-1.45-3.18,0-5.9,0-9.15,0-9-11.08-11.91-17.75-14.47a49.36,49.36,0,0,1-14.86-8.85c-3.8-3.33-7.26-8.06-12.17-9.83-6.21-2.24-8.65,2.94-14.28,3.93-6.12,1.08-12.47-4.24-17.59-6.77a49.93,49.93,0,0,0-31.46-4.09,52.69,52.69,0,0,0-16,6c-5.77,3.27-12,8.22-18.88,8.44-7.3.24-10.49-7.16-17.29-7.85-4.72-.48-9.11,1.86-13.16,3.94a2.65,2.65,0,0,0-.44.3c-5.21,2.63-9.5,5.13-13,10.1a23.19,23.19,0,0,0-4.23,14.84A78.28,78.28,0,0,0,49.05,115c2.91,7.91,10.44,5.64,17.27,5,8.76-.88,19.71-4.15,26.12,3.7,5.55,6.8,8.19,16.75,10.67,25,1.89,6.28,7.77,21,.35,25.54-.33.2-.68.39-1,.57-.16-.23-.3-.46-.46-.69a4.16,4.16,0,0,1,0,.73V175c-4.57,2.14-10.22,2.46-15,3.89-5,1.51-9.8,4.13-12.86,8.45-4.61,6.49-2.28,14,.58,20.68,3.24,7.61,7.65,15.29,7.24,23.85s-9.81,13-8.39,22c2.24,14.29,17.84,25.6,31.09,28.42,7.46,1.59,12.95.14,18.4-5.15,3.59-3.49,6.91-6.33,11.82-7.77,4.08-1.2,8.48-.72,12.49-2.21,4.24-1.58,6.48-5.16,10.08-7.61,4.65-3.17,10.77-4.88,16.23-5.95a72.81,72.81,0,0,1,15.81-1,13.23,13.23,0,0,0,9.78-3.54c3.16-2.91,4.91-6.91,7.1-10.52A125.17,125.17,0,0,1,215,226.09ZM114.62,167.42v.73l-.17-.24-.13-.18c-.09-.24-.17-.24-.25,0l0,0a2,2,0,0,0-.13-.25c-.23-.31,0-.19-.24-.11a1.8,1.8,0,0,0-.73.86l-.34-.14q0-.47,0-.93a17.16,17.16,0,0,0,.43-2.11Zm5.28,7.31v.54a8.67,8.67,0,0,0,0,1.25c-.33.22-.66.44-1,.67v-.9c0-.41,0-.83,0-1.24h0c0-.42,0-.83,0-1.25v-.4l.09.13C119.23,173.9,119.58,174.3,119.9,174.73Zm-12.35,7.07a1.24,1.24,0,0,0,.63.9.55.55,0,0,0,.17.05c0,.15,0,.3,0,.45a7,7,0,0,0,.14.92c0,.14,0,.4.13.5s.07.07.29,0l0,0a4.2,4.2,0,0,0,.46,1.19l.12.22-.28.36c-.15.37-.25.41-.32.11s-.33-.72-.44-1-.36-.77-.55-1.15c-.3-.63-.62-1.25-.94-1.87Zm2.83,3.06a15.51,15.51,0,0,0,1-3.16,1.19,1.19,0,0,0,.13.25,2.63,2.63,0,0,0,.32-.6,6.54,6.54,0,0,0,.45-1.26c0,.42,0,.85,0,1.27,0-.14,0,.57,0,.25s0-.77,0-1.14v-.62a9.79,9.79,0,0,0,.17-1.21s0,.05,0,.08v2.64s0,.17,0,.31v.42l.56-.31s0,.1,0,.16c-.54.54-1.07,1.08-1.59,1.65s-.88,1-1.3,1.5Zm5.89-14.45v0c0-.33-.12-.64-.19-1l.19.26Zm-4-2.42c0,.89-.08,1.79-.09,2.69l-.08.13a5.54,5.54,0,0,0-.21-.57c-.08-.19-.18-.37-.28-.56A13.43,13.43,0,0,0,112.32,168Zm-2.08,4.59a4.4,4.4,0,0,0-.09,1.44l-.36.57a3.14,3.14,0,0,0,0,.74v.36c-.08.11-.17.22-.24.33a4.82,4.82,0,0,0-.1-.75,2.51,2.51,0,0,0-.22-.78c-.13-.18.06-.32-.18,0a3.15,3.15,0,0,0-.2.47,7.06,7.06,0,0,0-.46,2c0,.23,0,.46,0,.69a1.12,1.12,0,0,1-.25-.11,7.36,7.36,0,0,0,0-1.41H108c0-.27,0-.54,0-.82v-.5a19,19,0,0,0,2.29-2.76C110.24,172.26,110.24,172.42,110.24,172.58Zm-4.57,4.24L105,178.9l-.71-1.2C104.78,177.43,105.23,177.14,105.67,176.82Zm92.94,67.28c-1.62,2.8-4,2.85-7,2.75a63.46,63.46,0,0,0-14,1.06c-7.44,1.42-15.16,3.93-21.37,8.39-4.07,2.93-6.68,5.83-12,6.42a34.53,34.53,0,0,0-18.61,7.52,47.64,47.64,0,0,0-3.58,3.23c-3.13,3.09-5.87,4.19-10.19,3.58a40.47,40.47,0,0,1-20.47-9.59c-5.29-4.6-11.58-12.08-11.79-19.45-.13-4.55,4.45-7.75,6.39-11.6a21.49,21.49,0,0,0,2.18-8.94c.24-7.87-3.25-14.9-6.37-21.91-2-4.43-4.32-9.39-4.07-14.35.22-4.44,2.24-5.56,6.07-6.78,6-1.9,12.56-2.81,18.13-5.45,0,0,0,0,0,.05.89,1.31,1.75,2.65,2.56,4,0,.57,0,1.15,0,1.73,0,0,0,.12,0,.21v.52l.82-1c.49.84,1,1.7,1.42,2.57s.78,1.51,1.15,2.28a9,9,0,0,0,.9,1.93c.09.48.22.51.41.08l.23-.3.72-.89c.44-.53.9-1.06,1.36-1.57a44,44,0,0,1,13.5-10,11.5,11.5,0,0,0,0-2.5c0-.13,0-1.26,0-2v-.54a2.28,2.28,0,0,1-2.52-1.91,13.74,13.74,0,0,1-.06,3.26c-.52.3-1,.6-1.56.92,0-.79-.05-1.6-.05-2.34a10.48,10.48,0,0,0,0-2,3.38,3.38,0,0,0-.65-1.28c-2.35-3.32-4.71-6.62-7.08-9.94a63.16,63.16,0,0,0-2.39-11.52A140.43,140.43,0,0,0,102,124.37c-3.57-7.42-8.69-12-17.22-11.65-4.81.19-9.65.91-14.44,1.38-4.48.45-11.21,2.59-14.13-1.84-2.26-3.43-2.62-8.72-3.44-12.64A69.83,69.83,0,0,1,51,88a18.76,18.76,0,0,1,9.89-17.4,5.29,5.29,0,0,0,.62-.26c5.19-2.64,10.34-4.84,15.62-1.11C81,71.89,83.55,74.8,88.55,75c9.16.44,17.19-6.44,25-10.19a47.37,47.37,0,0,1,32.39-2.78c5.33,1.43,9.89,4,14.71,6.58C165,71,169.78,73.28,174.81,72s8.64-5.95,14-2.48c4.37,2.82,7.5,7.33,11.61,10.52A50.55,50.55,0,0,0,212,86.66c4.39,1.83,9.13,3.06,13.1,5.76s5.34,5.86,4.65,10.72c-.61,4.33.26,7,2.78,10.58,3.08,4.38,5.14,7.36,1.88,12.36-2.21,3.41-4.35,6.26-4,10.55.58,6.62,3.85,13.55,5.84,19.85l6.54,20.75c2.14,6.76,7.18,20.81,2.15,27.84-2.35-4.13-8.34-3.24-12.25-1-6.53,3.8-12.16,10.31-17.09,15.93a136.81,136.81,0,0,0-14.45,19.73C200.27,241.19,199.45,242.65,198.61,244.1Zm2.46,17.61c5.33-3,9.13-7.72,12.35-12.79s5.83-10.28,9.4-15c3.75-5,8.39-8.49,14.5-10,3.81-.92,7.67-1.53,11-3.79a21,21,0,0,0,6.55-7.55c3.83-7.17,3.77-15.71,3.31-23.63-.24-4.33-.89-8.62-1.49-12.92l-1.92-13.74q-1.91-13.66-3.82-27.32l-3.78-27.09q-1-6.89-1.93-13.78c-.56-4-.79-8.28-2.15-12.11A12,12,0,0,0,236.31,75c-3-1.32-6.33-1.86-9.5-2.73a24.39,24.39,0,0,1-8.5-4,58.82,58.82,0,0,1-6.66-6.26c-4.13-4.31-8.58-9.08-14.76-10.08-7.22-1.16-14.6,3-21.71.67-6.65-2.12-9.08-10.19-16-11.83-3.93-.93-8.29-.28-12.26.12-4.36.44-8.7,1.11-13,2A155.08,155.08,0,0,0,109,50.46c-3.75,1.46-7.64,2.86-11.69,3.13A16.52,16.52,0,0,1,91.45,53,24.86,24.86,0,0,1,86,50.22a16.53,16.53,0,0,0-11.36-2.57c-3.86.56-7.46,2.16-11,3.64a67.38,67.38,0,0,0-15.79,9.28q-2.35,1.84-4.55,3.88a20.51,20.51,0,0,0-4.21,4.76A35.34,35.34,0,0,0,35.2,79.78c-1.55,7.59-1.33,15.57-1.06,23.27.23,6.61.2,13.88,3.18,20a14.32,14.32,0,0,0,6.49,6.71,18.23,18.23,0,0,0,8.84,1.53c6.59-.27,13-2.47,19.66-2a16.67,16.67,0,0,1,9,3.21,26.65,26.65,0,0,1,6.8,8.37,42.46,42.46,0,0,1,4.63,11c.14.57.23,1.14.32,1.71-.09.47-.19.94-.32,1.39a13.15,13.15,0,0,1-1.4,3.22C89,162,85,164.37,81,166.15c-4.48,2-9.2,3.42-13.7,5.39-3.91,1.7-8,3.93-10.27,7.67a13.71,13.71,0,0,0-1.89,7.24,45.49,45.49,0,0,0,.15,6.29,21.61,21.61,0,0,0,1.61,5.56c1.52,3.62,3.64,7,5.23,10.56a42.64,42.64,0,0,1,3.2,10.95q.21,1.32.33,2.64c0,.53.08,1.06.11,1.59-.13,1.82-.28,3.63-.59,5.44a43.76,43.76,0,0,1-3.32,10.71c-1.6,3.48-4.09,6.59-5.31,10.24a17.36,17.36,0,0,0-.6,5.65,18,18,0,0,0,.58,5.81A32.73,32.73,0,0,0,61.84,271a48.82,48.82,0,0,0,6.65,7.06c10.05,8.77,23.33,13.56,36.58,14.2a58.09,58.09,0,0,0,21.27-2.78,40,40,0,0,0,9.93-4.87,33.7,33.7,0,0,0,4.35-3.55,12.09,12.09,0,0,1,4.23-3.15c1.94-.66,3.5.4,5.32.9a5.41,5.41,0,0,0,4.8-1.22c1.37-1,2.57-2.26,3.95-3.28a27,27,0,0,1,4-2.41c6-2.94,12.71-3.84,19.22-4.87S195.28,264.94,201.07,261.71ZM162,267.4a25.35,25.35,0,0,0-3.91,2.57,36,36,0,0,1-4,3.26,5.21,5.21,0,0,1-4.85.27c-1.8-.69-3.38-1.17-5.19-.21a20.34,20.34,0,0,0-4,3.33,32.89,32.89,0,0,1-4.28,3.35,40.75,40.75,0,0,1-10,4.72c-12.91,4.16-27.41,3.36-40-1.42a56.94,56.94,0,0,1-16.83-9.84c-4.92-4.21-9.66-9.67-12.08-15.74a11.33,11.33,0,0,1-.48-1.57c0-.17.09-.34.14-.5a24.66,24.66,0,0,1,2.43-5,50.58,50.58,0,0,0,4.79-10.18c2.3-7.15,2.6-14.93,2-22.37a43.85,43.85,0,0,0-2.3-11,81.2,81.2,0,0,0-4.86-10.29,42.19,42.19,0,0,1-2.4-5.47,21.36,21.36,0,0,1-.69-2.58c0-.12,0-.24-.06-.36a12.65,12.65,0,0,1,2.38-5.28c2.68-3.48,6.86-5.49,10.83-7.13,4.41-1.81,9-3.21,13.33-5.25,3.91-1.85,7.78-4.34,9.84-8.28a15.94,15.94,0,0,0,1.54-7.25,13.69,13.69,0,0,0,0-3.14,27.86,27.86,0,0,0-2.39-10.68c-2.73-6.32-6.65-13.55-13.47-16.1-6-2.26-12.72-.63-18.85.31s-12.81,1.48-17.74-2.86-6-11.72-6.38-18c-.11-1.75-.19-3.5-.26-5.26q-.06-1.35-.09-2.7l0-.81v0c0-.33,0-.66,0-1A57.24,57.24,0,0,1,35.51,83.4a33.65,33.65,0,0,1,4.18-10.24,23.84,23.84,0,0,1,4.43-4.49c1.51-1.35,3.08-2.65,4.69-3.87a67.85,67.85,0,0,1,14.8-8.51c3.64-1.51,7.32-3.14,11.25-3.67,4.29-.58,7.89.62,11.52,2.83,3.46,2.1,6.81,3.41,10.92,3.14s7.94-1.67,11.69-3.13a154.2,154.2,0,0,1,24.47-7.56q6.33-1.32,12.76-2c3.94-.42,8.19-1,12.12-.36,7.14,1.23,9.53,8.9,15.76,11.6,6.83,2.95,14.38-1,21.43-.43,6.23.48,10.83,4.74,15,9s8.44,9,14.44,11c5.79,1.89,13.34,2.11,16.91,7.82,2.08,3.31,2.36,7.44,2.89,11.21l1.89,13.54,7.47,53.44c1.25,8.95,2.71,17.89,3.69,26.88.12,1.18.24,2.36.32,3.54,0,.48.06,1,.08,1.45v.06a50.28,50.28,0,0,1-.9,6.58,26.46,26.46,0,0,1-4.1,9.12,18.92,18.92,0,0,1-7.6,6.39c-3.72,1.64-7.86,1.84-11.65,3.27-5.29,2-9.23,6.15-12.38,10.71-6.62,9.55-10.92,21.48-22,26.82C187.71,263.2,173.6,261.16,162,267.4Zm17.3,14.92c6.83-2.19,13.72-4.24,20.47-6.66,5.85-2.09,11.66-4.64,16.5-8.61s7.95-9.21,11.09-14.47,6.48-10.44,11.56-14.07c5.23-3.75,11.4-6,16.31-10.26,8.55-7.35,11.43-18.76,12.1-29.6.81-13-.48-26.08-1.82-39q-2.36-22.6-6.33-45-2-11.18-4.38-22.29c-1.38-6.41-2.55-13-5-19.14a23.74,23.74,0,0,0-11.7-13c-5.59-2.71-11.91-3.67-17.31-6.77A21.78,21.78,0,0,1,214.29,48a14.05,14.05,0,0,1-1.93-3.31,11,11,0,0,1-.55-1.8s0-.08,0-.12a17.1,17.1,0,0,0-.08-3.67C201.6,36,191.17,41.23,181,38.53c-3.63-1-7.34-2.85-9.53-6a10.34,10.34,0,0,1-1.18-2.29A10.73,10.73,0,0,1,170,29l-.12-.66c-.1-.67.11-.56-.58-.68a23.44,23.44,0,0,0-4.1.08c-1.53.05-3.06.12-4.6.21a170.22,170.22,0,0,0-33.78,5.44c-5.52,1.47-10.91,3.28-16.28,5.22a22.26,22.26,0,0,1-8.23,1.73,22.56,22.56,0,0,1-7.46-1.91,45.7,45.7,0,0,0-8.26-2.81,27.65,27.65,0,0,0-8-.3c-6,.62-11.78,2.73-17.43,4.77C49.62,44.24,39,51.21,31.74,61.19a62.49,62.49,0,0,0-11.55,32.2c-.79,11.58.12,23.92,5.76,34.29,2.71,5,6.63,9.5,11.89,11.82,4.56,2,9.69,2.29,14.54,3.19,4.17.77,8.94,2,11.27,5.89a9.23,9.23,0,0,1,.95,2.31,11.48,11.48,0,0,1-.71,2,20.21,20.21,0,0,1-6.11,7.2c-4.6,3.54-10.27,5.49-14.52,9.53a15.42,15.42,0,0,0-4.38,7.23,22.58,22.58,0,0,0-.61,5.46,13.49,13.49,0,0,0,0,2.85c0,.45,0,.89,0,1.33.21,6.52,3.22,12.39,6.32,18a86.42,86.42,0,0,1,4.46,8.8,31.8,31.8,0,0,1,1.52,4.57,22.88,22.88,0,0,1,.47,2.47l0,.23C49.89,231.44,41,239.64,37.62,249.86a26.27,26.27,0,0,0-1.3,8,45.08,45.08,0,0,0,.62,10.25,37.8,37.8,0,0,0,8.64,16.52c7.52,8.7,18.13,14.25,29.17,17.05,27.8,7,56.19-3.81,82.4-12.22ZM94.76,298.87a71.35,71.35,0,0,1-33.59-7.29c-10.27-5.22-19.41-13.84-23.23-24.92a30.52,30.52,0,0,1-1.18-4.51c-.13-.68-.22-1.37-.29-2.06,0-.1,0-.21,0-.31A28.14,28.14,0,0,1,38.71,252c2.2-5.09,5.41-9.66,8.09-14.5,2.56-4.64,4.47-9.47,4.53-14.83a39,39,0,0,0-.62-9.65,39.84,39.84,0,0,0-3.56-9c-3-5.83-6.69-11.35-8.17-17.83-.16-.73-.3-1.46-.41-2.21,0-.11,0-.23,0-.35a15,15,0,0,1,1-3.84,16.84,16.84,0,0,1,5.16-6.46c4.49-3.58,10.08-5.55,14.4-9.37a18,18,0,0,0,5.22-7.22,14.87,14.87,0,0,0,.73-4.45,12,12,0,0,0,0-2.73c0-.56,0-1.11-.08-1.65-.64-10.65-14.78-10.17-22.32-11.86a23.28,23.28,0,0,1-13.24-8.14,40.83,40.83,0,0,1-7.47-15.56A56.24,56.24,0,0,1,20.41,104c-.15-1.35-.23-2.69-.3-4,0-.11,0-.23,0-.34q.06-1.37.18-2.73a63.14,63.14,0,0,1,3.81-16.5A56.88,56.88,0,0,1,44.45,53.73,72.3,72.3,0,0,1,61.1,45.05c9.68-3.49,19.83-7,29.95-3.17,2.44.92,4.81,2.06,7.32,2.77a15.77,15.77,0,0,0,8.07.19c2.77-.66,5.42-1.8,8.11-2.73s5.5-1.84,8.28-2.66a171,171,0,0,1,33.65-6.25c2.89-.24,5.79-.41,8.68-.5a19.43,19.43,0,0,1,4.1-.08c.54.12.31-.2.54.34a4.18,4.18,0,0,1,.1.67,10.14,10.14,0,0,0,.37,1.44c1.25,3.6,4.48,6,7.88,7.48,10.84,4.54,22.39-1.81,33.4,1.46a17.82,17.82,0,0,0,.22,3.65,14.07,14.07,0,0,0,4.1,7.08c4.33,4.31,10.06,6,15.69,7.92s11.25,4.35,14.9,9.42C250,77,251.53,82.93,252.87,88.7a620.63,620.63,0,0,1,13.77,88.05c.28,3.27.54,6.53.7,9.8.07,1.39.07,2.79.14,4.18-.12-2.46,0,0,0,.68,0,.81-.07,1.62-.12,2.42a55.52,55.52,0,0,1-3.3,16.59,31.78,31.78,0,0,1-9.09,13.09c-4.86,4.06-10.89,6.33-16,10-10.1,7.23-12.94,20.37-22.32,28.26-4.68,3.93-10.3,6.51-16,8.59-6.5,2.38-13.16,4.35-19.75,6.46-14.43,4.63-28.82,9.39-43.31,13.84C123.65,294.93,109.37,298.62,94.76,298.87Zm-81.38-120v0h0ZM18.83,205a1.77,1.77,0,0,0,0-.23c0,.06,0,.11,0,.17ZM76,103.86a13,13,0,0,1,0,2.5c0,.59,0,1.18,0,1.77,0,.05,0,.14,0,.25v.48L73.38,98.74c-.11-.42-.22-.85-.34-1.28a3.48,3.48,0,0,0-.18-.69s-.36.41-.39.44l-1.66,1.86L67.32,103c.07-.07,0-.61,0-.73,0-.59,0-1.18,0-1.77s0-1.18,0-1.77a3.62,3.62,0,0,1,0-.73L69,96.11l-1.81-1.67-1.4-1.3a3.51,3.51,0,0,0-.4-.37l-.13-.12-.14.24-.45.79L61.59,99a9.56,9.56,0,0,1-.77,1.35v-.53c0-.09,0-.16,0-.2V96.12a3,3,0,0,1,0-.73L61.59,94a9.45,9.45,0,0,0,.92-3.33,12.36,12.36,0,0,0,0,1.72l2.14-3.75a4.38,4.38,0,0,1,.5-.87l.09-.16.2.19.33.3,1.47,1.36,2.8,2.59c.08.08,0,.61,0,.74,0,.58,0,1.17,0,1.76,0,.1,0,.2,0,.3l.74-.82,1.74-1.95.15-.18c.12-.22.18-.24.19-.06s.12.43.15.58c.12.43.23.86.34,1.28l2.25,8.61a2.25,2.25,0,0,0,0-.45Zm11,2.39c0,.64,0,1.29-.07,1.93v-.08a23.24,23.24,0,0,0-.49-3.53,8.39,8.39,0,0,0-1-1.87c-.09-.11,0-.58,0-.73s0-.6,0-.91A22,22,0,0,0,83.94,98a23,23,0,0,0-1.44-2.19c-.25-.33-.51-.66-.78-1l-.3-.35-.15.23a4.49,4.49,0,0,0-.44.69l-3.4,5.29c.07-.11,0-.58,0-.73,0-.59,0-1.18,0-1.77s0-1.18,0-1.77a2.61,2.61,0,0,1,0-.73l2.22-3.45,1-1.61.52-.8.22-.35.3.35a22.69,22.69,0,0,1,3.4,5.51,22.93,22.93,0,0,1,1.36,4.18,7.91,7.91,0,0,1,.52,2.09c0,.34,0,.67.06,1Q87.3,101.48,87.06,106.25Zm2.38-15.08c0,.59,0,1.17,0,1.76s0,1.18,0,1.77a3.51,3.51,0,0,0,0,.73A36.47,36.47,0,0,0,87,89.66a6.77,6.77,0,0,0-3-2.91,2.35,2.35,0,0,0-1.75,0,4.18,4.18,0,0,0-1.59,1.48,2.07,2.07,0,0,1-1.73,1,.84.84,0,0,1-.83-.73h0v0a7.63,7.63,0,0,1,0-1.43c0-1.11,0-2.23,0-3.33,0,0,0-.06,0-.09v0h0a.67.67,0,0,1,.23-.48c.27-.24.87-.39.92.13,0,.31,0,.63,0,1l.25,0c.75-.25,1.14-1,1.62-1.54A2.51,2.51,0,0,1,84.48,82a8.09,8.09,0,0,1,2.82,3.18,48,48,0,0,1,2.13,5.27A2.61,2.61,0,0,1,89.44,91.17Zm-11.83-6.1a3.16,3.16,0,0,1-3.6-.83,3,3,0,0,1-.82-1.74c0-.13,0-.27,0-.41a11.76,11.76,0,0,1-5.4,7.23,4.65,4.65,0,0,0,0-.73c0-.59,0-1.18,0-1.77s0-1.18,0-1.77a3.74,3.74,0,0,1,0-.73A11.78,11.78,0,0,0,73.2,77v.5c0,.08,0,.16,0,.22a3.26,3.26,0,0,0,4.4,2.39,6.3,6.3,0,0,0,0,.73c0,.59,0,1.18,0,1.77s0,1.18,0,1.76A4.86,4.86,0,0,1,77.61,85.07Zm26.2,5.24v3.53a3.46,3.46,0,0,0,0,.73q-.9-2.47-1.81-5l-.9-2.48-.45-1.24-.19-.53c-.09-.23-.09-.5-.18-.13a13,13,0,0,1-4.47,7,3,3,0,0,0,0-.73c0-.59,0-1.18,0-1.77s0-1.18,0-1.77a4.56,4.56,0,0,1,0-.73,13,13,0,0,0,4.47-7c.09-.37.09-.1.18.13l.22.62.42,1.15.9,2.48q.92,2.49,1.81,5A3,3,0,0,1,103.81,90.31Zm-2.87,10.56c0,.59,0,1.18,0,1.77s0,1.17,0,1.76a5.81,5.81,0,0,0,0,.74l-4.39-5.63a4.65,4.65,0,0,0-.54-.7c-.06-.15-.11-.17-.14,0l-.13.2-.24.41c-.31.5-.61,1-.91,1.5-.6,1-1.2,2-1.81,3,.08-.12,0-.58,0-.74,0-.59,0-1.18,0-1.76s0-1.18,0-1.77a3,3,0,0,1,0-.73l1.85-3.07.91-1.5.24-.41.13-.2.1.12a5.42,5.42,0,0,1,.54.7l4.39,5.63C101,100.25,100.94,100.72,100.94,100.87Zm20.7,1.3c0,.59,0,1.18,0,1.77s0,1.18,0,1.77c0-.1,0,.71,0,.73a10.09,10.09,0,0,1-3.16-3.79,9.87,9.87,0,0,1-.71-2,1.8,1.8,0,0,0-.08-.39c-.06-.15,0-.1-.13-.14a.81.81,0,0,0-.38,0,1.77,1.77,0,0,0-.73.44c-1,1-.92,2.38-1.57,3.49a1.73,1.73,0,0,1-1.28,1,1.19,1.19,0,0,1-1-.7,1.5,1.5,0,0,1-.16-.62c-.08-1.3,0-2.62,0-3.93,0-.52-.21-1.43.51-1.56a14,14,0,0,0,0,1.54,1,1,0,0,0,.16.12,1,1,0,0,0,1.23-.15c.87-.67,1-1.89,1.34-2.85a3.49,3.49,0,0,1,.87-1.39,1.69,1.69,0,0,1,.65-.37.83.83,0,0,1,.38,0,.15.15,0,0,1,.11.06,6.51,6.51,0,0,0-1.26-3.38,5.23,5.23,0,0,0-2.75-1.84,3.9,3.9,0,0,0-4.62,2.7v.87s0,.09,0,.21v.52a.19.19,0,0,1,0-.08s0,.07,0,.08a3.49,3.49,0,0,1-.36-1.68q0-2,0-3.93a8.36,8.36,0,0,1,0-1.22A3.11,3.11,0,0,1,110.54,85s0,.32,0,.53a3.92,3.92,0,0,1,1.7-.67A4.48,4.48,0,0,1,115.66,86a6,6,0,0,1,1.92,3.47,14.87,14.87,0,0,1,.17,2.41c0,.83,0,1.67,0,2.5v1.16a10,10,0,0,0,3.88,5.91C121.7,101.49,121.64,102.06,121.64,102.17Zm5.13,8.53c-.41-.3-.32-1.26-.32-1.66,0-1.18,0-2.35,0-3.53a6,6,0,0,1,0-1.12,1.89,1.89,0,0,1,1.89-1.64s.05.26.05.65l.6-.89,3.22-4.8a.65.65,0,0,0,0,.3c0-.1,0-.2,0-.3v.53a1.64,1.64,0,0,1,0,.2c0,.59,0,1.18,0,1.77v.12c0,.31.07.62.13.93a13.32,13.32,0,0,0,.73,2.48A12.68,12.68,0,0,0,136,108c.08.08,0,.6,0,.73,0,.59,0,1.18,0,1.77s0,1.18,0,1.77a5.61,5.61,0,0,0,0,.73,12.7,12.7,0,0,1-3.35-5.65,13.32,13.32,0,0,1-.48-3.2c0-.43,0-.86,0-1.29l-2.71,4-1.35,2c-.23.34-.45.68-.68,1l-.34.51-.17.25C126.87,110.81,126.82,110.81,126.77,110.7Zm10.89,2.91a3.14,3.14,0,0,1,0-.74l2.38-3.43,1.17-1.68.31-.44.15-.22c.06-.12.09-.09.1.1a4.75,4.75,0,0,1,.27.93q1.16,3.91,2.3,7.84a2.54,2.54,0,0,1,0,.73c0,.59,0,1.18,0,1.77s0,1.18,0,1.77c0,0,0,.1,0,.26V121l-1.05-1.14c-.08-.09,0-.6,0-.74V117.3l-1.23-4.17-.15-.51c0-.12-.06-.42-.15-.5s-.06-.12-.12.06l-.1.14-.31.44c-.4.59-.81,1.17-1.22,1.76l-2.33,3.35c.07-.1,0-.58,0-.73v-3.53Zm30.08,30.72v3.53a3,3,0,0,0,0,.74c-1-2.59-2-5.17-3-7.75l-.37-1-.2-.53-.1-.27-.07.18a5.07,5.07,0,0,0-.42,1l-.41.95c-.54,1.22-1,2.5-1.63,3.68a2.57,2.57,0,0,0,0-.73c0-.59,0-1.18,0-1.77s0-1.17,0-1.76a3.08,3.08,0,0,1,0-.74c.61-1.18,1.09-2.46,1.63-3.68l.45-1a5.1,5.1,0,0,1,.38-.86c0-.21.07-.23.11-.09l.1.27c.06.17.13.35.2.53l.33.88c1,2.58,2,5.16,3,7.75A3,3,0,0,1,167.74,144.33Zm1.87,10.41a4.56,4.56,0,0,1,0-.73,11.86,11.86,0,0,0,4-4.15,12.21,12.21,0,0,0,.64-1.31c.18-.44.27-.94.47-1.37,0-.27.06-.29.08-.08l.07.43c.05.28.09.57.14.85.11.62.21,1.23.31,1.85q.61,3.61,1.22,7.24c.11.61.21,1.23.31,1.84.06.33.11.67.17,1,0,.15.05.79.14.85s.09.11.07-.06l0-.43c0-.29,0-.58.05-.86l.12-2c0-.24,0,.21,0,.25,0,.5,0,1,0,1.5,0,1,0,2.05,0,3.07l-.09,1.65.12-.11c.11-.19.17-.17.2,0a5.36,5.36,0,0,1,.39,1.06c.27.7.54,1.4.8,2.11.55,1.43,1.09,2.87,1.63,4.31.14.35.27.7.4,1.05.07.17.12.36.2.53s.11.1.12-.11c0-.78.07-1.55.1-2.32,0-.24,0,.21,0,.25,0,.5,0,1,0,1.5,0,1,0,2.05,0,3.07l-.12,2.78v.09l-2.79-7.38c-.24-.62-.47-1.23-.7-1.85l-.1-.26-.13.13a2.4,2.4,0,0,0-.4.38l-.66.64-2.79,2.7a3.06,3.06,0,0,0,0-.73c0-.59,0-1.18,0-1.77s0-1.17,0-1.76a3.82,3.82,0,0,1,0-.74l3.3-3.2q-.93-5.56-1.87-11.15c0-.08-.29-1.55-.27-1.56a10.33,10.33,0,0,0-.4,1.28,11.68,11.68,0,0,1-4.76,5.77,3.61,3.61,0,0,0,0-.73c0-.59,0-1.18,0-1.77S169.6,155.33,169.61,154.74Zm-24-42.19a2.6,2.6,0,0,1,0-.73,42.35,42.35,0,0,1,2.42-3.82c.41-.59.84-1.17,1.29-1.73.12-.15.23-.3.35-.44l.18-.22.07.19a4.7,4.7,0,0,1,.42,1.14l3.24,8.91a2.28,2.28,0,0,1,0,.74c0,.58,0,1.17,0,1.76s0,1,0,1.48l.6-.86c0,.12,0,.23,0,.34A30.94,30.94,0,0,0,157,131.44a2.53,2.53,0,0,1,0,.73v3.54s0,.1,0,.27v.46l-1.61-1.67c-.08-.09,0-.6,0-.73,0-.59,0-1.18,0-1.77,0-.14,0-.28,0-.43a32.79,32.79,0,0,1-1.14-8.21l0,.34c-1.54,2.21-3.08,4.41-4.61,6.62.07-.1,0-.59,0-.73,0-.59,0-1.18,0-1.77s0-1.18,0-1.77a3.06,3.06,0,0,1,0-.73l3.31-4.76a1,1,0,0,1-.56-.79,16.09,16.09,0,0,1,0-2.69q-1-2.71-2-5.41a7,7,0,0,0-.42-1.14c0-.21-.06-.25-.13-.12l-.18.22c-.11.15-.23.29-.35.44q-.66.85-1.29,1.74a41.3,41.3,0,0,0-2.36,3.74,2.65,2.65,0,0,0,0-.74c0-.59,0-1.17,0-1.76S145.61,113.14,145.62,112.55Zm20.15,5.12a42.5,42.5,0,0,1,3.73,9.23,3,3,0,0,1,0,.73c0,.59,0,1.18,0,1.77s0,1.17,0,1.76a6.68,6.68,0,0,1,0,.74.93.93,0,0,1-1.15-.86,21.32,21.32,0,0,1,0-2.77,42.4,42.4,0,0,0-1.88-4.32l-.5-1c-.07-.13-.41-.93-.53-1s-.5.36-.61.46a4,4,0,0,0-.55.61,4.76,4.76,0,0,0-.72,1.42c0,.11-.05.23-.07.35,0,.37,0,.73,0,1.1a4.4,4.4,0,0,0,0,.73,20.24,20.24,0,0,1-.13-4.12v-1a2.7,2.7,0,0,1,0-.69,5.3,5.3,0,0,1,.21-1.38,4.68,4.68,0,0,1,.89-1.64,4.19,4.19,0,0,1,.65-.61,1.88,1.88,0,0,1,.23-.16c.1-.13.17-.1.2.08A2,2,0,0,1,165.77,117.67Zm6,20.67c0-.59,0-1.18,0-1.77a3.72,3.72,0,0,1,0-.73,12,12,0,0,0,4.41-4.67,3.42,3.42,0,0,0,0,.73V133a.22.22,0,0,1,0,.08.49.49,0,0,1,0,.12l0,.58c0,.49.08,1,.14,1.46.11.9.26,1.8.45,2.69s.46,1.75.7,2.63c0,.1,0,.21.05.31s0-.09,0-.13v.17a.69.69,0,0,1,0,.13,1,1,0,0,0,.33.53v-.73a3.72,3.72,0,0,1,0-.73,1.19,1.19,0,0,1,1.74.73,3,3,0,0,1,.05.6c0,.94,0,1.88,0,2.82a16.28,16.28,0,0,1,0,1.85.93.93,0,0,1-.17.48,1.19,1.19,0,0,1-1.76-.12,1.45,1.45,0,0,1-.27-.92,29.43,29.43,0,0,1-1.17-5.5,37.1,37.1,0,0,1-.22-3.81,12.14,12.14,0,0,1-4.37,4.6,4.75,4.75,0,0,0,0-.74C171.77,139.51,171.77,138.92,171.77,138.34Zm8.69,12.39,1.49-1.51.83-.84.46-.46.15-.15c.09-.19.16-.21.2-.06s.22.45.29.59l.24.48.53,1.07,4.29,8.63a2.22,2.22,0,0,1,0,.73v3.54s0,.09,0,.21v.52l-1.5-2.78a.61.61,0,0,1,0-.32c-.47-.94-.94-1.88-1.4-2.82l-1.45-2.91-.72-1.45-.19-.39c0-.24-.13-.26-.25,0s-.38.39-.53.53l-2.34,2.37-.45.45-.3.31c-.11.2-.19.21-.22,0a2.41,2.41,0,0,1-.22-1.16c0-1.08,0-2.16,0-3.23a16.21,16.21,0,0,1,.06-2.31,3.41,3.41,0,0,1,1.06-2,2.6,2.6,0,0,0,0,.73v2.3Zm-23.38-4.26a3,3,0,0,1,0,.74c0,.59,0,1.18,0,1.76s0,1.18,0,1.77c0-.11,0,.73,0,.73a8.7,8.7,0,0,1-4-4.05,8.87,8.87,0,0,1-.8-2.75c-.05-.4-.06-.81-.07-1.21a.17.17,0,0,1,0-.07,12.81,12.81,0,0,1-4.28,7,3.67,3.67,0,0,0,0-.73c0-.59,0-1.18,0-1.77s0-1.18,0-1.77a3.73,3.73,0,0,1,0-.73,12.88,12.88,0,0,0,4.33-7.16,1.11,1.11,0,0,0,0,.26v.15c0,.11,0,.23,0,.33s0,.37,0,.56a4.26,4.26,0,0,0,.06.5,7.65,7.65,0,0,0,.27,1.17,8.66,8.66,0,0,0,1,2.12A8.51,8.51,0,0,0,157.08,146.47Zm3.69,13.45,3.12-4.3,1.53-2.1s.37-.55.4-.55a4.84,4.84,0,0,1,.23.61c.14.37.27.75.4,1.12a62,62,0,0,1,1.82,6.57,2.43,2.43,0,0,0,0-.54c.21,1.23.41,2.47.61,3.71a16,16,0,0,1,0,2.5v1.77c0,.08,0,.18,0,.29v.44a60.32,60.32,0,0,0-2.43-9.74c-.14-.41-.29-.81-.44-1.22,0,0-.13-.5-.19-.51a5,5,0,0,0-.4.55l-1.59,2.2-3.06,4.2c.07-.1,0-.59,0-.73,0-.59,0-1.18,0-1.77s0-1.18,0-1.77A3.06,3.06,0,0,1,160.77,159.92ZM159,115.16a3.07,3.07,0,0,1,0-.73l4.21-4.53,1.12-1.21c.12-.12.27-.37.42-.45s.19-.2.26,0l.24.34,1.77,2.56,1.77,2.55a3.75,3.75,0,0,1,.63,1,5.14,5.14,0,0,1,0,1.24q0,1.26,0,2.52a4,4,0,0,1,0,1.2h0v0a.19.19,0,0,1-.09.12.4.4,0,0,1-.44-.11,1,1,0,0,1,0-.39v-.45l-.49-.71-1.24-1.79-1.18-1.71-.59-.85-.3-.43-.18-.25-.14.15a5,5,0,0,0-.7.75l-.77.83-1.4,1.51-2.88,3.1a3,3,0,0,0,0-.73v-3.54Zm15,5.47a16,16,0,0,1,0-2.5c0-.59,0-1.18,0-1.77a5.77,5.77,0,0,0,0-.73l.54,3.37c.09.54.17,1.09.26,1.63,0,.07.12.81.13.81a5.23,5.23,0,0,0,.23-.7,18.74,18.74,0,0,1,1.17-2.68c.23-.44.48-.86.74-1.27.13-.21.27-.41.41-.62s.27-.52.42-.59.12-.11.11.13.05.3.08.44l.18.88c.11.51.23,1,.35,1.52.25,1,.52,2,.83,3a55.35,55.35,0,0,0,2.06,5.56v-.59c0-.5,0-1,0-1.5,0,.17,0-.58,0-.25,0,.91.06,1.82.1,2.73s0,1.83,0,2.74v1.44s0,.15,0,.3v.15a.77.77,0,0,0,0,.28,55.53,55.53,0,0,1-2.21-6c-.31-1-.58-2-.83-3-.12-.5-.23-1-.34-1.52-.06-.26-.11-.51-.16-.77s-.05-.29-.08-.44,0-.28-.11-.13-.33.46-.42.59l-.47.7c-.26.42-.5.84-.73,1.28a20.58,20.58,0,0,0-1.16,2.69,4.81,4.81,0,0,1-.19.6s-.14-.85-.15-.93l-.26-1.62C174.25,122.8,174.07,121.72,173.9,120.63Zm9,19.37c0-.93-.06-1.89,0-2.82,0-.28.14-.62.48-.47a2.9,2.9,0,0,1,0,.73v.32a1.13,1.13,0,0,0,.77-.32,10.23,10.23,0,0,0,1.52-2.25c.48-.75.95-1.51,1.42-2.26l.73-1.17a3,3,0,0,1,.37-.59,3.06,3.06,0,0,1,.33.52q1.45,2.31,2.92,4.62a8.14,8.14,0,0,1,.74,1.19s0,.1,0,.15h0v0a6,6,0,0,1,0,1.2c0,.92,0,1.85,0,2.78,0,.25,0,.51,0,.77a.79.79,0,0,1,0,.21c-.06.11-.13.1-.25.06a.92.92,0,0,1-.66-.77c0-.29,0-.6,0-.9l-.15-.24-1.41-2.23-1.23-1.94a1.89,1.89,0,0,0-.19-.3c-.11-.12,0-.14-.14-.07s-.24.39-.32.51l-.55.88-2.42,3.87c-.29.46-.61,1-1.16,1.22a.56.56,0,0,1-.8-.45A15.78,15.78,0,0,1,182.9,140Zm14.51,16.44-1.3-2.18L193.56,150a10,10,0,0,0-.7-1.17,4.26,4.26,0,0,0-.36.8,8.38,8.38,0,0,1-4.15,3.83s0-.66,0-.74c0-.59,0-1.17,0-1.76s0-1.18,0-1.77a4.73,4.73,0,0,1,0-.73,8.39,8.39,0,0,0,3.39-2.65,7,7,0,0,0,.61-.92,5.27,5.27,0,0,1,.46-.92q0-.3.15,0l.2.33.3.5.75,1.26c1,1.64,2,3.28,2.95,4.93l.19.31v-.8c0,.08,0-.72,0-.74a2.65,2.65,0,0,1,.95,1.81,15.89,15.89,0,0,1,0,1.69q.22,4.69,0,3.33c0,.12,0,.23,0,.35a2.44,2.44,0,0,1-.07.46.53.53,0,0,1-.07.2c-.09.08,0,0-.12-.11A8.36,8.36,0,0,1,197.41,156.44Zm8.7-15.11c.08.16.18.32.27.48,0-.45,0-.9,0-1.36a3.46,3.46,0,0,0,0-.73,6.77,6.77,0,0,1,.91,2.86,49.61,49.61,0,0,1,0,5.72v.09a26.55,26.55,0,0,1-4.17-11.67c0-.06-.06-.75-.07-.75a6.16,6.16,0,0,0-.37.69q-.33.6-.72,1.17a16.12,16.12,0,0,1-1.72,2.14,17,17,0,0,1-4.53,3.41,6.25,6.25,0,0,0,0-.73c0-.59,0-1.18,0-1.77s0-1.18,0-1.77a4.75,4.75,0,0,1,0-.73,17.15,17.15,0,0,0,6-5.23c.24-.34.48-.7.7-1.07s.33-.84.57-1c0-.12.06-.11,0,0a1.49,1.49,0,0,0,0,.21l0,.33c0,.21,0,.43.07.64.06.47.13.94.22,1.4a26.08,26.08,0,0,0,2.67,7.67Zm9.42-6.68a19.78,19.78,0,0,0,2.17,4,17.1,17.1,0,0,0,1.41,1.77l.25.26v-1.13a5.33,5.33,0,0,0,0-.73c1.11.91,1,2.25,1,3.56,0,1,0,1.95,0,2.93a5.26,5.26,0,0,1,0,.89c0,.05,0,.34-.08.36s-.27-.26-.3-.3c-.2-.19-.4-.39-.59-.6a19.73,19.73,0,0,1-3.33-4.9,20.35,20.35,0,0,1-1.08-2.81c0-.14-.07-.27-.11-.4s0-.22-.2-.21a1,1,0,0,0-.46.24,2.31,2.31,0,0,0-.68.89c-.58,1.23-.23,4-1.92,4.4a1.44,1.44,0,0,1-1.61-.65,1.57,1.57,0,0,1-.07-.61c0-.72,0-1.44,0-2.16s0-1.52,0-2.28c0-.07,0-.12,0-.18v0h0a1.07,1.07,0,0,1,.06-.3,1.1,1.1,0,0,0,0,.45,1.23,1.23,0,0,0,1,.78,1.46,1.46,0,0,0,1.54-.81c.69-1.16.42-2.62,1.07-3.79a2.14,2.14,0,0,1,.59-.71,1.68,1.68,0,0,1,.34-.2c.24-.1.25-.09.32.17A20.69,20.69,0,0,0,215.53,134.65Zm-2.24,14.42a15.47,15.47,0,0,1-1,1.55,14,14,0,0,1-2.51,2.65,2.6,2.6,0,0,0,0-.73V149a3.73,3.73,0,0,1,0-.73,14,14,0,0,0,2.51-2.65,15.47,15.47,0,0,0,1-1.55c.13-.25.26-.5.38-.75,0-.09.08-.17.11-.26s.06-.17.1-.06.2.34.26.44l2.18,3.72,1.11,1.9.52.87a3.07,3.07,0,0,1,.45.95,3.55,3.55,0,0,1,0,.73c0,.59,0,1.18,0,1.77s0,1.17,0,1.76a6,6,0,0,0,0,.74,3.07,3.07,0,0,0-.45-.95l-.52-.87-1.11-1.9-2.18-3.72a4.59,4.59,0,0,0-.3-.51,1.53,1.53,0,0,0-.17.39C213.55,148.57,213.42,148.82,213.29,149.07Zm-.76,20.9a.56.56,0,0,0,0,.19l-6.73-8.39a2.56,2.56,0,0,0-.46-.57l-.13-.17,0,.35c0,.34-.09.68-.16,1a13.6,13.6,0,0,1-.64,2.15,12.65,12.65,0,0,1-2.38,3.78c.07-.07,0-.61,0-.74v-3.53a3.07,3.07,0,0,1,0-.73,12.65,12.65,0,0,0,2.38-3.78,13.6,13.6,0,0,0,.64-2.15c.07-.34.12-.68.16-1l0-.35.2.25.39.49,6.57,8.2v-.43c0-.5,0-1,0-1.5,0,.16,0-.57,0-.25l.13,2.46c0,.92,0,1.84,0,2.75,0,.48,0,.95,0,1.43,0,0,0,.17,0,.36V170Zm16.76-7.34a6,6,0,0,0,3.2,2.93,3.51,3.51,0,0,1,0,.74c0,.59,0,1.17,0,1.76s0,1.18,0,1.77c0-.11,0,.73,0,.73a6.2,6.2,0,0,1-3.62-4,9.9,9.9,0,0,1-.36-3q-2.06,4.53-4.1,9.07a1.68,1.68,0,0,0,0-.63,34.42,34.42,0,0,0-1.94-5.49c-.37-.81-.77-1.61-1.2-2.39-.24-.43-.48-.85-.74-1.27-.1-.16-.19-.32-.29-.47s-.17-.34-.46-.27c-1.39.35-1.55,2.17-1.72,3.32s-.73,2.89-2.25,2.38a1.15,1.15,0,0,1-.86-1v0s0,0,0,0c-.09-1.38,0-2.79,0-4.18a2.32,2.32,0,0,1,.13-1.11,2.32,2.32,0,0,0,0,.74v.07a1.58,1.58,0,0,0,1,.57,1.39,1.39,0,0,0,1.45-.73c.7-1.1.46-2.5.94-3.68a2.28,2.28,0,0,1,1.08-1.28.91.91,0,0,1,.42-.11c.15,0,.23.24.32.38.21.33.42.68.62,1a34.76,34.76,0,0,1,3.52,8.59c0-.39,0-.79,0-1.19s0-.77,0-1.15,0,.39,0,.25c0,.82,0,1.64.05,2.45q2.06-4.53,4.1-9.07a7.88,7.88,0,0,0-2-3.63c-.17-.17-.34-.34-.53-.5l-.24-.19-.16-.13-.08.11a1.82,1.82,0,0,0-.29.38l-.28.38-.48.64-2.18,2.92a4.28,4.28,0,0,0,0-.74c0-.36,0-.73,0-1.1,0-.94,0-1.88,0-2.82,0-1.23.05-2.47.07-3.7,0,.05,0-.52,0-.25a8.8,8.8,0,0,1,0,1.15c0,.78,0,1.56,0,2.34.83-1.11,1.67-2.22,2.5-3.34.11-.14.22-.28.32-.43a2.34,2.34,0,0,1,.33-.43c0-.12.09-.14.16,0l.16.12.32.27a7.87,7.87,0,0,1,2.4,4.14,8.86,8.86,0,0,1,.2,1.62c0,.89,0,1.78,0,2.67l.07-.17v.52a2.06,2.06,0,0,1,0,.21c0,.59,0,1.18,0,1.77s0,1.08,0,1.61A6,6,0,0,0,229.29,162.63Zm-22.36-37.51a3.06,3.06,0,0,1,0-.73l2.93-4.33,1.44-2.12.69-1,.4-.59c.15-.23.15-.35.22,0a8.18,8.18,0,0,0,4.64,5.77,4.26,4.26,0,0,1,0,.73v3.54c0-.11,0,.73,0,.73a8.18,8.18,0,0,1-4.64-5.77c-.08-.37-.13-.11-.28.11l-.34.51-.69,1-1.5,2.2L207,129.39c.07-.11,0-.59,0-.74,0-.58,0-1.17,0-1.76S206.92,125.71,206.93,125.12Zm12.59,3.47a4.56,4.56,0,0,1,0-.73,16.18,16.18,0,0,0,4.27-4l.24-.33c.1-.15.07-.17.22-.15s.55.38.73.49l1.46,1,2.92,2c.07,0,0,.62,0,.73,0,.59,0,1.18,0,1.77s0,1.17,0,1.76c0-.09,0,.72,0,.74l-3-2-1.46-1c-.1-.07-.62-.52-.73-.49s-.3.44-.37.53a16.18,16.18,0,0,1-4.27,4,3.61,3.61,0,0,0,0-.73c0-.59,0-1.18,0-1.77S219.51,129.18,219.52,128.59Zm-26-2.48a6.64,6.64,0,0,0,.78-1l1.44-1.88,1.5-2,.72-.94.19-.26q.09-.19.15.06a2.18,2.18,0,0,1,.2.37,11.75,11.75,0,0,0,5.72,4.85,3.42,3.42,0,0,1,0,.73c0,.59,0,1.18,0,1.77s0,1.17,0,1.76c0-.11,0,.73,0,.74a11.65,11.65,0,0,1-3.91-2.55,10.79,10.79,0,0,1-1.49-1.81,6.91,6.91,0,0,0-.6-1,8.5,8.5,0,0,0-.92,1.2l-3.65,4.8-.26.34-.05-.18a1.82,1.82,0,0,1-.11-.74c-.06-.89,0-1.79,0-2.68a12.23,12.23,0,0,1,.28-4,3,3,0,0,0,0,.73c0,.56,0,1.12,0,1.67Zm-9.83-3.48a2.68,2.68,0,0,1,0-.74l5.27-7.38c.08-.13.23-.45.36-.51s.11-.12.15.06l.1.15c.18.27.37.53.56.79a17.76,17.76,0,0,0,1.18,1.42,18.11,18.11,0,0,0,2.93,2.53c.07,0,0,.62,0,.73,0,.59,0,1.18,0,1.77s0,1.17,0,1.76c0-.09,0,.72,0,.74a18.11,18.11,0,0,1-2.93-2.53,17.36,17.36,0,0,1-1.23-1.49q-.27-.36-.51-.72l-.14-.22c-.06-.14-.11-.1-.17.09a2.2,2.2,0,0,0-.3.43l-5.27,7.38c.07-.09,0-.59,0-.73,0-.59,0-1.18,0-1.77S183.69,123.22,183.7,122.63Zm-46.28,6.8a3.06,3.06,0,0,1,0-.73l2-2.94,1-1.44.48-.72.22-.33.15-.22q.08-.19.09-.06c.06.07.07.29.1.38l.09.32c.08.24.17.49.27.73a10.45,10.45,0,0,0,.62,1.31,11.42,11.42,0,0,0,1.73,2.31c.08.08,0,.59,0,.73,0,.59,0,1.18,0,1.77s0,1.17,0,1.76a5.54,5.54,0,0,0,0,.74,11.25,11.25,0,0,1-1.76-2.36,10.39,10.39,0,0,1-.61-1.31c-.09-.23-.17-.45-.25-.68l-.09-.32c0-.09,0-.31-.1-.38s0-.07-.09.06l-.15.22-.22.33-.52.78-1,1.44-1.93,2.88c.07-.1,0-.59,0-.73,0-.59,0-1.18,0-1.77S137.42,130,137.42,129.43Zm20.9,30.49a3,3,0,0,1,0,.74c0,.59,0,1.17,0,1.76s0,1.18,0,1.77c0-.11,0,.73,0,.73a11.23,11.23,0,0,1-5.36-5.39,4.13,4.13,0,0,0-.37-.91c0-.14-.08-.11-.15.1l-.18.26-.37.53-1.41,2-2.95,4.22a2.26,2.26,0,0,0,0-.73v-3.54a3.07,3.07,0,0,1,0-.73l2.95-4.22,1.47-2.12.37-.52.12-.18c.09-.23.15-.24.18,0a4.12,4.12,0,0,1,.34.83A11.23,11.23,0,0,0,158.32,159.92Zm14.47,16.27c0,.59,0,1.18,0,1.77s0,1.18,0,1.77a4.28,4.28,0,0,0,0,.73,36.19,36.19,0,0,0-4.08-4.58c-.67-.64-1.37-1.25-2.08-1.83a10.13,10.13,0,0,0-1.05-.81.79.79,0,0,0-.89.08c-1.21.74-1.17,2.45-1.74,3.59-.26.52-.77,1.16-1.41,1.13a1.16,1.16,0,0,1-.93-.83,3,3,0,0,1-.1-1c0-1.25,0-2.49,0-3.73,0-.49-.12-1.21.54-1.27a9.92,9.92,0,0,0,0,1.58.87.87,0,0,0,.3.16c.62.19,1.2-.4,1.49-.88.7-1.18.56-3,1.85-3.8a.78.78,0,0,1,1,0c.38.29.76.58,1.13.89.73.61,1.45,1.24,2.13,1.91a36,36,0,0,1,3.79,4.3C172.86,175.58,172.79,176,172.79,176.19Zm24.34-2.25c0,.59,0,1.18,0,1.77s0,1.18,0,1.77c0-.09,0,.71,0,.73a17.91,17.91,0,0,1-5.26-7.6c0-.1-.06-.19-.1-.29s-.06-.26-.15-.1-.31.35-.42.47l-1,1.14-1.88,2.08-3.94,4.35c.07-.07,0-.61,0-.73V174a3.82,3.82,0,0,1,0-.74l3.94-4.35c.65-.73,1.31-1.45,2-2.18l.94-1a5.72,5.72,0,0,1,.51-.57,2.35,2.35,0,0,1,.16.49,17.91,17.91,0,0,0,5.26,7.6C197.19,173.28,197.13,173.82,197.13,173.94Zm13.9,8.83a1.28,1.28,0,0,1-.14.64.63.63,0,0,1-.25.26c-.22.14-.22.09-.4-.07a9.77,9.77,0,0,1-1.08-1.31l-2-2.46-2-2.46-.54-.66c-.15-.18-.34-.54-.54-.66s-.18-.21-.25,0l-.23.36-.45.73-3.5,5.63c.07-.12,0-.58,0-.73,0-.59,0-1.18,0-1.77s0-1.18,0-1.77a2.6,2.6,0,0,1,0-.73l2.82-4.54.68-1.09a7.65,7.65,0,0,1,.68-1.09c.05-.2.11-.24.18-.1l.2.25.41.49.81,1,3.32,4,.81,1a4.9,4.9,0,0,0,.82,1l0,0c0-.74,0-1.73,0-1.74.77.14.68,1,.68,1.63C211.06,180,211.1,181.38,211,182.77Zm14.37,4a15.4,15.4,0,0,1-6.5-5.46c-.2-.31-.4-.63-.58-1l-.09-.16c-.07-.23-.14-.22-.22,0a2.1,2.1,0,0,0-.31.5l-1.42,2.32-2.85,4.63c.08-.11,0-.58,0-.73,0-.59,0-1.18,0-1.77s0-1.18,0-1.77a3,3,0,0,1,0-.73l2.85-4.63,1.49-2.42c.08-.13.18-.44.3-.5s.11-.14.16.06l.13.24c.17.3.35.59.54.88a15.46,15.46,0,0,0,6.5,5.46,3,3,0,0,1,0,.74c0,.59,0,1.18,0,1.76s0,1.18,0,1.77C225.42,186,225.39,186.79,225.4,186.79Zm5.93-4.13c.52-1.32,1-2.63,1.57-3.95l.38-.93.19-.47.11-.29.15.14a3.47,3.47,0,0,1,.77.67l.77.67,5.1,4.43v-.52a2.87,2.87,0,0,0,0-.73l1.2,2.3a2.22,2.22,0,0,1,0,.73v3.54s0,.13,0,.31V189l-6.32-5.48-.77-.67-.46-.4c-.1-.09-.26-.31-.38-.34s-.11-.09-.12,0l-.11.28-.19.47-.37.94c-.52,1.28-1,2.57-1.54,3.85a3,3,0,0,0,0-.73c0-.59,0-1.18,0-1.77s0-1.18,0-1.77A2.6,2.6,0,0,1,231.33,182.66Zm-21.52,12.11c0,.59,0,1.18,0,1.77s0,1.18,0,1.77a4.2,4.2,0,0,0,0,.73l-4.68-8.19v-.09a13.06,13.06,0,0,1-3.37,8.19,3.12,3.12,0,0,0,0-.74c0-.59,0-1.18,0-1.76s0-1.18,0-1.77a3.07,3.07,0,0,1,0-.73,13,13,0,0,0,3.34-7.68c0-.11,0-.22,0-.34v-.08l4.68,8.19C209.88,194.19,209.81,194.59,209.81,194.77Zm-14.1,1c0,1.4.06,2.82,0,4.23,0,.45-.22,1.3-.85,1.2-.79-.12-.58-1.49-.58-1.94q0-1.14,0-2.28v-.07a.93.93,0,0,1-.13-.15,5.57,5.57,0,0,0-1.41-1.05,1.54,1.54,0,0,0-.34-.17,4.37,4.37,0,0,0-.06.56c0,.31-.09.61-.15.91a15.6,15.6,0,0,1-3.37,7c.07-.08,0-.6,0-.73,0-.59,0-1.18,0-1.77s0-1.18,0-1.77a3.62,3.62,0,0,1,0-.73,15.26,15.26,0,0,0,3.38-7.07c.05-.23.09-.46.12-.7a2.6,2.6,0,0,1,.07-.56c.05-.15-.08-.13.13-.09a1.55,1.55,0,0,1,.22.12c.15.08.3.16.44.25a5.8,5.8,0,0,1,2.44,3.41A6.56,6.56,0,0,1,195.71,195.78ZM180,185.61v3.53a3.46,3.46,0,0,0,0,.73l-2.5-6-.07-.17c0-.15-.07-.15-.12,0a2.1,2.1,0,0,0-.22.3l-.51.72-.93,1.32-1.88,2.64a1.93,1.93,0,0,1,0-.34v-.39c0-.59,0-1.18,0-1.77s0-1.18,0-1.77a3,3,0,0,1,0-.73c.29-1,.59-1.93.88-2.9a3.08,3.08,0,0,0,0,.74v.89l1-1.42c.31-.44.63-.88.94-1.33l.47-.66c.06-.08.13-.24.22-.3s.09-.14.12,0l.07.17,2.5,6A3,3,0,0,1,180,185.61Zm9.42-.13c0,.59,0,1.18,0,1.77s0,1.17,0,1.76a4.24,4.24,0,0,0,0,.74l-2.69-3.14-.34-.4c-.11-.13-.16-.24-.34-.22a1.06,1.06,0,0,0-.53.26,1.62,1.62,0,0,0-.38.6c0,.52,0,1.05,0,1.57a6.4,6.4,0,0,1,0,1.16c-.09.62-.73,1.39-1.42,1.15-.49-.17-.37-.71-.37-1.13q0-1.66,0-3.33a4.28,4.28,0,0,1,0-1.13c.09-.33.63-.86.87-.36a2.23,2.23,0,0,1,0,.73v.19l.07,0a1.4,1.4,0,0,0,.69-.75v-.46c0-.64,0-1.29,0-1.93a1.66,1.66,0,0,1,.82-1.48.45.45,0,0,1,.42,0,3.53,3.53,0,0,1,.46.54l.88,1,1.84,2.15C189.47,184.85,189.4,185.33,189.4,185.48Zm9.17,3.29a7.65,7.65,0,0,1-1.73-4.55v.09c-.77,1.48-1.55,2.95-2.33,4.43a2.57,2.57,0,0,0,0-.73c0-.59,0-1.18,0-1.77s0-1.18,0-1.77a3,3,0,0,1,0-.73c.78-1.48,1.56-3,2.33-4.43v.09a1,1,0,0,0,0,.17,7.47,7.47,0,0,0,1.22,3.53,7.67,7.67,0,0,0,2.4,2.31,4,4,0,0,1,1.17,1,1.2,1.2,0,0,1,.23.66c.07.94,0,1.9,0,2.84,0,.65,0,1.3,0,1.95a1.89,1.89,0,0,1,0,.41.39.39,0,0,1-.2.28.78.78,0,0,1-.76-.2.6.6,0,0,1-.19-.25v0h0a2.37,2.37,0,0,1,0-.53v-.94l-.3-.19A7.43,7.43,0,0,1,198.57,188.77Zm-82.18,65.56a3.07,3.07,0,0,1,0,.73c-1.12,1.23-3.05.49-3.86-.71a6.81,6.81,0,0,1-.89-2.46,2.28,2.28,0,0,0-.12-.7c0-.23,0-.24-.16,0l-.27.34L110,252.86l-2.17,2.67-.95,1.17a5.86,5.86,0,0,1-.54.67c-.19.17-.21.22-.47.14-.8-.24-.75-1.22-.76-1.87,0-1.39-.07-2.8,0-4.18a1,1,0,0,1,.33-.76,3.13,3.13,0,0,0,0,.74v.81a.65.65,0,0,0,.62.29c.3,0,.59-.59.79-.84l.95-1.17,1.76-2.17c.29-.37.59-.73.88-1.09a7.12,7.12,0,0,1,.88-1.09c.12-.23.17-.22.16,0l0,.17c0,.24.08.47.13.7a8.62,8.62,0,0,0,.26,1A4.25,4.25,0,0,0,113,250a2.43,2.43,0,0,0,3.34.1,3,3,0,0,0,0,.73c0,.59,0,1.18,0,1.77S116.4,253.74,116.39,254.33Zm9.34-6.34c.08.82,0,1.67,0,2.5,0,.59,0,1.18,0,1.77a5.9,5.9,0,0,0,0,.73,11,11,0,0,0-2.33-5.72l-.24-.3-.13-.15c0-.08-.1-.07-.17.05a6.43,6.43,0,0,0-.71.58l-1.42,1.18L117.87,251a2.6,2.6,0,0,0,0-.73V246.7a3.73,3.73,0,0,1,0-.73l2.86-2.34,1.42-1.18a3.92,3.92,0,0,1,.71-.58q.12-.19.21,0l.09.1.24.3A11.12,11.12,0,0,1,125.73,248Zm4-10.13v3.53a3,3,0,0,0,0,.74,9.23,9.23,0,0,0-3.62-4.72c-.13-.09-.53-.43-.69-.41s-.48.54-.58.65l-1.34,1.5-2.62,2.93c.07-.08,0-.61,0-.74,0-.59,0-1.17,0-1.76s0-1.18,0-1.77a3.62,3.62,0,0,1,0-.73l2.68-3,1.28-1.43c.14-.16.46-.64.64-.62a2.16,2.16,0,0,1,.63.38,9.23,9.23,0,0,1,3.62,4.72A3,3,0,0,1,129.71,237.86Zm9.52-.14c.06.82,0,1.67,0,2.5s-.09,1.68,0,2.5a6.37,6.37,0,0,0-1.28-3.34,6.6,6.6,0,0,0-1.33-1.31,2.2,2.2,0,0,0-.68-.42c-.11-.11-.18-.08-.21.08s-.1.19-.16.28-.16.28-.23.43a34.23,34.23,0,0,0-3.19,8.18,3,3,0,0,0,0-.73v-3.54a4.48,4.48,0,0,1,0-.73,34.23,34.23,0,0,1,3.19-8.18l.27-.5.12-.21c0-.16.1-.19.21-.08a2.8,2.8,0,0,1,.73.46,6.16,6.16,0,0,1,1.28,1.27A6.45,6.45,0,0,1,139.23,237.72Zm24.36-8.4c0,.38.13,1.51-.55,1.42a.6.6,0,0,1-.54-.55,0,0,0,0,0,0,0v-.07c0-.2,0-.42,0-.61,0-.46,0-.93,0-1.39-.23-.24-.47-.47-.68-.66a10.77,10.77,0,0,0-1.3-1c-.22-.15-.45-.29-.68-.42a1.54,1.54,0,0,0-.38-.2c-.07,0-.22.31-.26.36l-4.65,6.58c.07-.1,0-.59,0-.73,0-.59,0-1.18,0-1.77s0-1.18,0-1.77a3.07,3.07,0,0,1,0-.73q1.57-2.25,3.17-4.48l1.43-2a1.54,1.54,0,0,1,.21-.29c.15-.13,0-.14.23-.08a2.48,2.48,0,0,1,.38.22,7.56,7.56,0,0,1,.79.51,8.22,8.22,0,0,1,2.67,2.83,1.81,1.81,0,0,1,.17.74h0v0c0,.06,0,.12,0,.18C163.62,226.7,163.61,228,163.59,229.32Zm5.4-31.94v2.43a4.07,4.07,0,0,1,0,.78c-.07.3-.33.35-.62.24a1.9,1.9,0,0,1-.82-.9l-.71-1.24-1.59-2.79-.77-1.35a3.14,3.14,0,0,0-.18-.31c-.1-.13,0-.23-.14-.12a2,2,0,0,0-.15.61,15.27,15.27,0,0,1-.83,2.16,13.94,13.94,0,0,1-6.45,6.42,4.78,4.78,0,0,0,0-.74V199a4.73,4.73,0,0,1,0-.73,13.94,13.94,0,0,0,6.74-7.07c.16-.39.31-.78.43-1.17.07-.2.12-.4.18-.6l.06-.26c0-.25.07-.23.16,0a7.17,7.17,0,0,1,.83,1.45l.83,1.45c.55,1,1.08,1.94,1.65,2.89.2.32.45.73.84.83h.08a3.45,3.45,0,0,1,0-.72c.19-.2.35,0,.42.21A7.18,7.18,0,0,1,169,197.38Zm-12.93-10c0-.72,0-1.44,0-2.15a1.27,1.27,0,0,1,0-.47.4.4,0,0,1,.38-.24s0,.56,0,1.15a.86.86,0,0,0,.52.26c.65.06,1.07-.72,1.27-1.22a11,11,0,0,1,.75-1.85,3.79,3.79,0,0,1,1.33-1.25,4,4,0,0,1,3.56-.27,4,4,0,0,1,2.19,2.88,5.17,5.17,0,0,1,.09.95v.24h0c0,1.14,0,2.28,0,3.42a6.68,6.68,0,0,1-.3,2.56,2.56,2.56,0,0,0,0-.73c0-.59,0-1.18,0-1.77v-.42a3.71,3.71,0,0,0-5.26-2,4,4,0,0,0-1.42,1.15,5.77,5.77,0,0,0-.79,1.73,2.52,2.52,0,0,1-1,1.49.86.86,0,0,1-1.12-.34,1.09,1.09,0,0,1-.23-.54A17,17,0,0,1,156.06,187.4ZM102.46,251c0,.59,0,1.18,0,1.77s0,1.18,0,1.77a4.2,4.2,0,0,0,0,.73,28.43,28.43,0,0,0-2-2.85c-.39-.47-.79-.92-1.22-1.36-.19-.21-.38-.41-.58-.6a1.43,1.43,0,0,0-.28-.27c-.08-.15-.15-.14-.2,0l-.09.14c-1.39,2.19-2.79,4.37-4.18,6.55.07-.11,0-.58,0-.73,0-.59,0-1.18,0-1.77s0-1.18,0-1.76a2.67,2.67,0,0,1,0-.74c1.39-2.18,2.79-4.36,4.18-6.55l.14-.21c0-.11.09-.1.15,0a2.5,2.5,0,0,1,.33.32l.59.6c.4.43.79.86,1.16,1.31a28.43,28.43,0,0,1,2,2.85C102.53,250.45,102.46,250.87,102.46,251Zm.84-2v-.17c0-.11,0-.22,0-.27,0-.48,0-1,0-1.44,0-.91,0-1.83,0-2.74l.15-2.63c0-.24,0,.21,0,.25,0,.5,0,1,0,1.5,0,.19,0,.38,0,.58,1.75-2.07,3.51-4.13,5.26-6.19.1-.12.6-.87.74-.87s.57.63.67.75l1.34,1.49c.46.49.91,1,1.37,1.47a2.29,2.29,0,0,0,.7.54,1.63,1.63,0,0,1,0-.4c0-.22.26,0,.33.08a4.06,4.06,0,0,1,.06,1.39c0,1.18,0,2.36,0,3.54,0,0,0,.07,0,.1v0h0c0,.23-.17.33-.46.24a2.07,2.07,0,0,1-.76-.65l-.89-1-1.68-1.86-.4-.45-.27-.3-.2.23-.87,1-1.69,2c-1.14,1.34-2.28,2.69-3.43,4A.57.57,0,0,0,103.3,249Zm14.18-16.13a25.12,25.12,0,0,1-.94,2.64,1.44,1.44,0,0,1-1.42,1c-.37,0-.8-.1-.89-.48l0,0V236a19.36,19.36,0,0,1,0-2.41c0-.72,0-1.44,0-2.16a1.85,1.85,0,0,1,0-.25v-.09s0,0,0,0a.55.55,0,0,1,.22-.34,2.52,2.52,0,0,0,0,.61,1.74,1.74,0,0,0,.67.15,1.32,1.32,0,0,0,1.26-.68c.84-1.47.9-3.34,2-4.69.77-1,2.32-1.84,3.49-1,.65.45.86,1.3,1.5,1.75a1.63,1.63,0,0,0,.57.24c0-.23,0-.45,0-.67,0-.65.84-.33.94.14a7.93,7.93,0,0,1,0,1.54q0,1.36,0,2.73c0,.45.11,1-.39,1.23-.79.34-1.46-.45-1.85-1a2.27,2.27,0,0,0-1.81-1.27C119.07,229.8,118,231.45,117.48,232.91Zm17.33-18.46,1.5.82,3,1.65a2.91,2.91,0,0,1,0,.73c0,.59,0,1.18,0,1.77s0,1.18,0,1.77c0-.11,0,.72,0,.73l-3.09-1.69-1.51-.83L134,219c-.05,0-.28-.19-.33-.18s-.18.27-.21.32q-1.87,2.87-3.76,5.73c.07-.1,0-.58,0-.73,0-.59,0-1.18,0-1.77s0-1.17,0-1.76a3.09,3.09,0,0,1,0-.74q1.89-2.87,3.76-5.73l.16-.24c0-.1.07-.11.13,0a1.28,1.28,0,0,1,.34.19Zm18.78,22.36c.06.91,0,1.83,0,2.74V241s0,.17,0,.37v.19a.58.58,0,0,0,0,.17l-2.45-2.86-1.27-1.49-.59-.68a4.77,4.77,0,0,0-.58-.69,2.58,2.58,0,0,0-.22.44l-.22.43-.39.8-.84,1.66-1.66,3.33a2.58,2.58,0,0,0,0-.73c0-.59,0-1.18,0-1.77s0-1.18,0-1.77a2.6,2.6,0,0,1,0-.73l1.66-3.33.87-1.74c.14-.26.27-.53.4-.79a4.25,4.25,0,0,1,.4-.8,2.94,2.94,0,0,1,.32.37l.32.38.58.68c.41.48.82.95,1.22,1.43l2.29,2.67c0-.48,0-1,0-1.46,0,.15,0-.57,0-.25C153.5,235.48,153.54,236.15,153.59,236.81Zm25.15-11.59v3.53a4.28,4.28,0,0,0,0,.74,10.87,10.87,0,0,0-2.85-2.6,10.19,10.19,0,0,0-1.64-.85c-.15-.07-.3-.12-.46-.18s-.16-.09-.25.07a4,4,0,0,0-.24.85,8.15,8.15,0,0,1-4.64,4.89,6.3,6.3,0,0,0,0-.73v-3.53a6.68,6.68,0,0,1,0-.74,8.15,8.15,0,0,0,4.64-4.89,7.59,7.59,0,0,1,.24-.85c0-.14,0-.18.1-.12l.23.08.45.18a10.82,10.82,0,0,1,4.42,3.42C178.81,224.6,178.74,225.07,178.74,225.22Zm16.57-11.33v3.54a3.46,3.46,0,0,0,0,.73,7.2,7.2,0,0,0-3.2-3.31l-.34-.16-.13-.06c-.09-.08-.16-.08-.21,0-.22.11-.47.53-.64.73l-5.32,6a2.37,2.37,0,0,0,0-.53c0-.44,0-.87,0-1.3v-2.7c0-1-.07-2.07,0-3.08,0-.31,0,.39,0,.25,0,.5,0,1,0,1.5v.84l1.48-1.67c-2.32-2.15-4.69-4.26-7-6.38,0,.31,0,.63-.05.95a8.75,8.75,0,0,1-3.64,6.43c.08.22.18.43.26.65a3,3,0,0,1,0,.74c0,.59,0,1.17,0,1.76s0,1.18,0,1.77c0,0,0,.13,0,.32v.41a2.88,2.88,0,0,1-1.06-1.89c0-.22,0-.44,0-.66a19.07,19.07,0,0,0-2.52-3.79c-.19-.22-.39-.43-.59-.65l-.38-.38-.09-.1c-.08-.14-.14-.12-.18.05a2.32,2.32,0,0,0-.28.49l-.27.48-.56,1-2.15,3.76a2.63,2.63,0,0,0,0-.74c0-.59,0-1.17,0-1.76s0-1.18,0-1.77a3,3,0,0,1,0-.73l1.41-2.47a21.51,21.51,0,0,1-1.58-2.5c-.34-.65-.65-1.31-.93-2-.13-.34-.26-.69-.38-1-.06-.17-.12-.34-.17-.52s-.08-.19-.18.05a16.31,16.31,0,0,1-3.79,5.78l.65.61c.08.08,0,.61,0,.74v3.53a5.44,5.44,0,0,0,0,.73l-3.85-3.6-.86-.81a1.19,1.19,0,0,0-.2-.19c-.15-.09,0-.13-.17,0s-.18.37-.24.48c-.32.68-.65,1.35-1,2s-.69,1.4-1,2.11a5.51,5.51,0,0,1-.89,1.49,1.25,1.25,0,0,1-1,.43l.9.73c.08.06,0,.62,0,.73,0,.59,0,1.18,0,1.77s0,1.18,0,1.77c0-.09,0,.71,0,.73L151.11,222l-.94-.77-.47-.38-.28-.23-.1.19a4,4,0,0,0-.5.91q-.25.45-.54.9a27,27,0,0,1-4.64,5.54c0,.2,0,.4,0,.54,0,1.21.1,2.47,0,3.68,0,0,0,0,0,0v0c0,.2-.1.32-.36.33-.71,0-1.33-1.07-1.72-1.54l-1.78-2.13L137.94,227l-.27-.31-.18.26-.44.6c-.28.4-.57.8-.86,1.19l-3.34,4.63a3,3,0,0,0,0-.73c0-.59,0-1.18,0-1.77s0-1.18,0-1.77a2.62,2.62,0,0,1,0-.73c.9-1.26,1.81-2.51,2.72-3.77l1.36-1.88a5.38,5.38,0,0,1,.62-.86c.06-.2.12-.23.19-.09l.2.23.33.4,2.84,3.39a18.22,18.22,0,0,0,1.4,1.65l.14.11v-1c0-.59,0-1.18,0-1.77a3.73,3.73,0,0,1,0-.73,27,27,0,0,0,5.6-6.4q.28-.45.54-.9c.11-.19.26-.61.42-.85l0,0c-.3-.29-.59-.59-.87-.89a22.38,22.38,0,0,1-1.58-1.92c-.25-.34-.48-.68-.71-1-.12-.18-.24-.37-.35-.56l-.17-.28c-.06-.2-.11-.2-.17,0a2,2,0,0,0-.26.44c-.11.2-.23.39-.35.59-.24.39-.49.77-.75,1.15a35.07,35.07,0,0,1-3.19,4c.07-.07,0-.61,0-.73,0-.59,0-1.18,0-1.77s0-1.18,0-1.77a3.62,3.62,0,0,1,0-.73,34.1,34.1,0,0,0,2.75-3.38c.42-.58.81-1.18,1.19-1.78l.53-.88c.05-.1.11-.2.17-.3l.12.22c.08.14.17.28.26.42A20.91,20.91,0,0,0,148.4,210c.22.24.45.48.69.71a3.11,3.11,0,0,0,.73.68c.09.15.16.15.21,0l.08-.12a3.74,3.74,0,0,0,.22-.45.38.38,0,0,1,0-.1v-1.23a3.58,3.58,0,0,0,0-.74,4.46,4.46,0,0,1,.17,1.2c0,1.27,0,2.55,0,3.82a4.78,4.78,0,0,1-.42,2.43l.13.11.94.77,2.53,2.05a1.33,1.33,0,0,1-.09-.44c-.07.24-.07-.14,0-1.16s0-1.87,0-2.81a5.64,5.64,0,0,1,.05-1.16c.07-.29.26-.46.54-.32a2.89,2.89,0,0,1,0,.73v.53h0a1.54,1.54,0,0,0,1.17-.84,14.32,14.32,0,0,0,.9-1.74c.33-.68.66-1.35,1-2l.52-1.05.23-.49a4.29,4.29,0,0,1,.24-.48c.08,0,.79.74.86.8l.86.81,1.55,1.46v-.46c0-.59,0-1.18,0-1.77a3.72,3.72,0,0,1,0-.73,16.42,16.42,0,0,0,4.88-6.78c0-.09.07-.18.11-.28l.09.31.15.44c.12.35.25.7.38,1,.28.68.59,1.34.93,2a22,22,0,0,0,2.55,3.78c.09.1,0,.58,0,.73,0,.42,0,.83,0,1.25l.3-.53.31-.55a1.71,1.71,0,0,1,.24-.42c0-.17.1-.19.18-.05l.14.15.33.33c.2.22.4.43.59.65a18.93,18.93,0,0,1,2.57,3.88c0-.07,0-.14,0-.21a1.93,1.93,0,0,0,0,.24c.09.18.19.35.27.52v-2.64a4.75,4.75,0,0,1,0-.73,8.76,8.76,0,0,0,2.95-3,9.13,9.13,0,0,0,1.09-3c0-.19.06-.39.08-.59v-.17a2.71,2.71,0,0,1,0-.29s0-.24,0-.47v-.11a.5.5,0,0,0,0-.16l.27.25c-.75-1.3-1.51-2.59-2.27-3.89-.41-.71-.83-1.42-1.25-2.13l-.24-.43-.17-.29c0-.16-.09-.18-.19-.07a2.66,2.66,0,0,0-.71.51,8.93,8.93,0,0,0-3.05,4.84l-.23,1.36V203a2.65,2.65,0,0,1,0-.27c0-.59,0-1.18,0-1.77,0-.83,0-1.67,0-2.5a9,9,0,0,1,.23-1.36l.24-1.37a2.53,2.53,0,0,0,0,.55,9,9,0,0,1,2.81-4c.18-.14.48-.46.71-.51s.16-.09.19.07l.17.29.24.43c.42.71.84,1.42,1.25,2.13l2.42,4.14c.09.14,0,.55,0,.73v3.53s0,.39,0,.61c2.31,2.09,4.65,4.15,6.93,6.28.08.08,0,.61,0,.73,0,.59,0,1.18,0,1.77s0,1.18,0,1.77c0,0,0,.08,0,.22l3.58-4.05.32-.37c.06-.06.31-.42.39-.43s.55.24.68.31a6.88,6.88,0,0,1,1.24.83,6.73,6.73,0,0,1,1.89,2.44A2.54,2.54,0,0,1,195.31,213.89Zm10.3-5.77c0,.59,0,1.18,0,1.77s0,1.18,0,1.77a4.3,4.3,0,0,0,0,.73,9.63,9.63,0,0,0-3.27-4.68c-.19-.15-.38-.29-.58-.42s-.29-.23-.35-.21-.14.31-.15.35l-.73,1.66L199,212.51c0-.11,0-.22,0-.34v-.39c0-.59,0-1.18,0-1.77s0-1.17,0-1.76a3.12,3.12,0,0,1,0-.74l1.51-3.42.73-1.66.1-.24c0-.11,0-.14.1-.09s.23.15.3.19.39.27.58.42a9.63,9.63,0,0,1,3.27,4.68A2.53,2.53,0,0,1,205.61,208.12Zm5.47-2.67c.07-.11,0-.58,0-.73,0-.59,0-1.18,0-1.77s0-1.18,0-1.77a2.62,2.62,0,0,1,0-.73l5.08-7.67.63-.95.32-.48a2.86,2.86,0,0,1,.32-.48c.15,0,.55.56.66.68s.41.47.61.73a12,12,0,0,1,1.78,3.33,3,3,0,0,1,0,.73v3.54a3.46,3.46,0,0,0,0,.73,12,12,0,0,0-1.78-3.33c-.2-.26-.4-.5-.61-.73s-.53-.69-.66-.68-.57.85-.64,1l-.63.95Zm22.71-13c.07.83,0,1.68,0,2.5,0,.59,0,1.18,0,1.77l0,.21v.33a.82.82,0,0,0,0,.19,10,10,0,0,0-5.31-4.46c-.13,0-.7-.3-.81-.24a4.26,4.26,0,0,0-.29,1,14.86,14.86,0,0,1-.75,1.8,14.59,14.59,0,0,1-2.19,3.21,3,3,0,0,0,0-.73c0-.59,0-1.18,0-1.77s0-1.18,0-1.77a3.07,3.07,0,0,1,0-.73,14.59,14.59,0,0,0,2.19-3.21,14.42,14.42,0,0,0,.77-1.87c0-.11.18-.87.27-.9s.65.19.81.24a10,10,0,0,1,5.08,4.08c0-.77.08-1.58,0-2.35Z"/></svg>
